<?xml version="1.0" encoding="UTF-8" standalone="no"?>
<svg width="322px" height="82px" viewBox="0 0 322 82" version="1.1" xmlns="http://www.w3.org/2000/svg" xmlns:xlink="http://www.w3.org/1999/xlink" xmlns:sketch="http://www.bohemiancoding.com/sketch/ns">
    <!-- Generator: Sketch 3.4.3 (16044) - http://www.bohemiancoding.com/sketch -->
    <title>BC-box-check_xxsm_REV</title>
    <desc>Created with Sketch.</desc>
    <defs></defs>
    <g id="Badges" stroke="none" stroke-width="1" fill="none" fill-rule="evenodd" sketch:type="MSPage">
        <g id="BC-box-check_xxsm_REV" sketch:type="MSLayerGroup">
            <rect id="Rectangle-2" stroke="#FFFFFF" stroke-width="2" sketch:type="MSShapeGroup" x="0" y="0" width="322" height="82"></rect>
            <g id="Group" transform="translate(14.000000, 9.000000)" fill="#FFFFFF" sketch:type="MSShapeGroup">
                <path d="M14.7614605,35 C14.5484468,35 14.3392987,34.9035524 14.1967969,34.7236704 C12.1356258,32.1236729 11,28.8343312 11,25.4611088 C11,18.1855881 16.2331831,11.9721888 23.1729086,11.0075486 C23.5148947,10.9568114 23.8421008,11.1663136 23.9578395,11.5014372 C24.0731233,11.8375474 23.9457881,12.2113347 23.6515527,12.39723 C18.0856381,15.9176841 14.7629157,22.0526992 14.7629157,28.8102311 C14.7629157,30.5727131 14.9988043,32.3331751 15.4637599,34.0428999 C15.5571466,34.3860569 15.4044353,34.7503074 15.0980121,34.9145924 C14.9915053,34.9723764 14.8757666,35 14.7614605,35 Z M25.4671474,51 C11.4245588,51 0,39.5609069 0,25.500525 C0,11.4396181 11.4245588,0 25.4671474,0 C32.5569447,0 39.3805468,2.99338613 44.189455,8.21300895 C45.334785,9.45629216 45.2568568,11.3931596 44.0157252,12.5404954 C42.7743553,13.6878313 40.8390194,13.6087302 39.6936895,12.365948 C36.0394054,8.39929622 30.8539635,6.12454897 25.4671474,6.12454897 C14.7974435,6.12454897 6.11676725,14.8162687 6.11676725,25.500525 C6.11676725,36.1842562 14.7974435,44.8754749 25.4671474,44.8754749 C30.4378698,44.8754749 35.1621771,42.9921767 38.7699902,39.5721457 C39.9963464,38.4100157 41.9323972,38.4636088 43.0934558,39.6910479 C44.2547526,40.9190358 44.201609,42.8574304 42.9752528,44.0200854 C38.2266377,48.5216181 32.0090642,51 25.4671474,51 Z M44.6500501,59.4357384 C45.4180997,60.9446454 44.8798485,62.8226156 43.447063,63.6316452 C42.0142774,64.4401825 40.230098,63.8733828 39.4626861,62.3649682 L36.412596,56.420834 C35.6441212,54.9128895 36.1830102,53.0344269 37.6155831,52.2254196 C39.0483687,51.41686 40.8325482,51.9841297 41.6001726,53.4920742 L44.6500501,59.4357384 Z M44.2193016,60.0274512 C44.4241082,60.3963395 44.280243,60.8556706 43.8967475,61.0531129 C43.5125991,61.2500946 43.0355151,61.1122011 42.8307085,60.7433129 L41.6560632,58.6865895 C41.4508213,58.3181408 41.5942513,57.8588097 41.9786173,57.6613674 C42.3618951,57.4639461 42.8389791,57.6022792 43.044874,57.9711674 L44.2193016,60.0274512 Z M37.9535908,49.1542734 C38.5335546,48.8662261 39.1902061,48.9930925 39.4195981,49.4385421 C39.6507788,49.8858809 39.3661628,50.4812197 38.7870932,50.7697283 L35.5460924,52.4161804 C34.9661285,52.7056336 34.309477,52.5787671 34.0798614,52.1319116 C33.8500222,51.6869234 34.1330732,51.0911233 34.7134842,50.8021534 L37.9535908,49.1542734 Z" id="Fill-33"></path>
            </g>
            <path d="M80.6259766,25 L80.6259766,11.9921875 L85.046875,11.9921875 C86.3535222,11.9921875 87.3481411,12.2382788 88.0307617,12.7304688 C88.7133823,13.2226587 89.0546875,13.940425 89.0546875,14.8837891 C89.0546875,16.44825 88.0146588,17.5556608 85.9345703,18.2060547 C88.3662231,18.7978545 89.5820312,19.9902254 89.5820312,21.7832031 C89.5820312,22.8203177 89.2260778,23.6157199 88.5141602,24.1694336 C87.8022425,24.7231473 86.7812567,25 85.4511719,25 L80.6259766,25 Z M83.1748047,17.40625 L83.8164062,17.40625 C84.5781288,17.40625 85.1831032,17.2187519 85.6313477,16.84375 C86.0795921,16.4687481 86.3037109,15.9589876 86.3037109,15.3144531 C86.3037109,14.7167939 86.123537,14.3110362 85.7631836,14.097168 C85.4028302,13.8832997 84.7216847,13.7763672 83.7197266,13.7763672 L83.1748047,13.7763672 L83.1748047,17.40625 Z M83.1748047,23.1542969 L83.7548828,23.1542969 C84.8916072,23.1542969 85.6752908,23.0327161 86.105957,22.7895508 C86.5366232,22.5463855 86.7519531,22.1025423 86.7519531,21.4580078 C86.7519531,20.7958951 86.4633818,20.2451194 85.8862305,19.8056641 C85.3090791,19.3662087 84.5810591,19.1464844 83.7021484,19.1464844 L83.1748047,19.1464844 L83.1748047,23.1542969 Z M91.2438672,25 L91.2438672,15.3496094 L93.8454297,15.3496094 L93.8454297,17.1689453 C94.5192612,15.8095635 95.5446415,15.1298828 96.9216015,15.1298828 C97.0856649,15.1298828 97.2467961,15.1474608 97.405,15.1826172 L97.405,17.5029297 C97.0358575,17.3681634 96.6930875,17.3007812 96.3766797,17.3007812 C95.3395651,17.3007812 94.4958235,17.8251901 93.8454297,18.8740234 L93.8454297,25 L91.2438672,25 Z M102.758242,25.2197266 C101.252375,25.2197266 100.05561,24.7641647 99.1679101,23.8530273 C98.2802103,22.94189 97.8363671,21.715828 97.8363671,20.1748047 C97.8363671,18.6162031 98.28314,17.3857467 99.1766992,16.4833984 C100.070258,15.5810502 101.284602,15.1298828 102.819766,15.1298828 C104.360789,15.1298828 105.578062,15.5810502 106.471621,16.4833984 C107.36518,17.3857467 107.811953,18.6103438 107.811953,20.1572266 C107.811953,21.7392657 107.363715,22.9785111 106.467227,23.875 C105.570738,24.7714889 104.334422,25.2197266 102.758242,25.2197266 L102.758242,25.2197266 Z M102.802187,23.59375 C104.296336,23.59375 105.043398,22.4482536 105.043398,20.1572266 C105.043398,19.1083932 104.845646,18.2792999 104.450137,17.6699219 C104.054627,17.0605438 103.511175,16.7558594 102.819766,16.7558594 C102.134215,16.7558594 101.593693,17.0605438 101.198184,17.6699219 C100.802674,18.2792999 100.604922,19.1142525 100.604922,20.1748047 C100.604922,21.2236381 100.801209,22.055661 101.193789,22.6708984 C101.586369,23.2861359 102.122497,23.59375 102.802187,23.59375 L102.802187,23.59375 Z M109.482578,25 L109.482578,11.1220703 L112.084141,11.1220703 L112.084141,19.8496094 L112.251133,19.8496094 L115.687656,15.3496094 L117.849766,15.3496094 L114.676914,19.4804688 L118.84293,25 L115.678867,25 L112.251133,20.1748047 L112.084141,20.1748047 L112.084141,25 L109.482578,25 Z M128.010625,24.6748047 C126.774291,25.0380878 125.602427,25.2197266 124.495,25.2197266 C122.883664,25.2197266 121.612192,24.7626999 120.680547,23.8486328 C119.748901,22.9345657 119.283086,21.6865313 119.283086,20.1044922 C119.283086,18.6103441 119.709351,17.4077194 120.561894,16.496582 C121.414438,15.5854447 122.540891,15.1298828 123.941289,15.1298828 C125.353405,15.1298828 126.384645,15.5751909 127.035039,16.4658203 C127.685433,17.3564498 128.010625,18.7656154 128.010625,20.6933594 L122.025273,20.6933594 C122.201055,22.5332123 123.211788,23.453125 125.0575,23.453125 C125.930551,23.453125 126.914916,23.2509786 128.010625,22.8466797 L128.010625,24.6748047 Z M121.990117,19.2255859 L125.453008,19.2255859 C125.453008,17.5790933 124.92274,16.7558594 123.862187,16.7558594 C122.784057,16.7558594 122.16004,17.5790933 121.990117,19.2255859 L121.990117,19.2255859 Z M129.980078,25 L129.980078,15.3496094 L132.58164,15.3496094 L132.58164,17.1689453 C133.255472,15.8095635 134.280852,15.1298828 135.657812,15.1298828 C135.821876,15.1298828 135.983007,15.1474608 136.141211,15.1826172 L136.141211,17.5029297 C135.772068,17.3681634 135.429298,17.3007812 135.11289,17.3007812 C134.075776,17.3007812 133.232034,17.8251901 132.58164,18.8740234 L132.58164,25 L129.980078,25 Z M147.910469,24.4814453 C146.650697,25.0439481 145.147782,25.3251953 143.40168,25.3251953 C141.268856,25.3251953 139.60774,24.7246154 138.418281,23.5234375 C137.228822,22.3222596 136.634101,20.6464951 136.634101,18.4960938 C136.634101,16.3046765 137.233216,14.6186582 138.431465,13.4379883 C139.629713,12.2573183 141.339168,11.6669922 143.559883,11.6669922 C144.977858,11.6669922 146.387024,11.8339827 147.787422,12.1679688 L147.787422,14.2861328 C146.199523,13.7294894 144.869458,13.4511719 143.797187,13.4511719 C142.426087,13.4511719 141.36848,13.8862261 140.624336,14.7563477 C139.880191,15.6264692 139.508125,16.8613201 139.508125,18.4609375 C139.508125,20.0312579 139.908023,21.255855 140.707832,22.1347656 C141.507641,23.0136763 142.619446,23.453125 144.043281,23.453125 C145.320631,23.453125 146.609681,23.1308626 147.910469,22.4863281 L147.910469,24.4814453 Z M149.545937,25 L149.545937,11.1220703 L152.1475,11.1220703 L152.1475,17.1689453 C152.997113,15.8095635 154.092806,15.1298828 155.434609,15.1298828 C156.295942,15.1298828 156.975622,15.402341 157.473672,15.9472656 C157.971721,16.4921902 158.220742,17.2363234 158.220742,18.1796875 L158.220742,25 L155.619179,25 L155.619179,18.8212891 C155.619179,17.7255805 155.255902,17.1777344 154.529336,17.1777344 C153.70316,17.1777344 152.909222,17.7607364 152.1475,18.9267578 L152.1475,25 L149.545937,25 Z M168.504648,24.6748047 C167.268314,25.0380878 166.096451,25.2197266 164.989023,25.2197266 C163.377687,25.2197266 162.106215,24.7626999 161.17457,23.8486328 C160.242925,22.9345657 159.777109,21.6865313 159.777109,20.1044922 C159.777109,18.6103441 160.203374,17.4077194 161.055918,16.496582 C161.908461,15.5854447 163.034915,15.1298828 164.435312,15.1298828 C165.847429,15.1298828 166.878668,15.5751909 167.529062,16.4658203 C168.179456,17.3564498 168.504648,18.7656154 168.504648,20.6933594 L162.519297,20.6933594 C162.695079,22.5332123 163.705811,23.453125 165.551523,23.453125 C166.424574,23.453125 167.40894,23.2509786 168.504648,22.8466797 L168.504648,24.6748047 Z M162.48414,19.2255859 L165.947031,19.2255859 C165.947031,17.5790933 165.416763,16.7558594 164.356211,16.7558594 C163.27808,16.7558594 162.654063,17.5790933 162.48414,19.2255859 L162.48414,19.2255859 Z M177.593242,24.7890625 C176.515112,25.0761733 175.516098,25.2197266 174.596172,25.2197266 C173.055148,25.2197266 171.837875,24.7670944 170.944316,23.8618164 C170.050757,22.9565384 169.603984,21.7246172 169.603984,20.1660156 C169.603984,18.5898359 170.06394,17.3564498 170.983867,16.4658203 C171.903793,15.5751909 173.175265,15.1298828 174.79832,15.1298828 C175.58348,15.1298828 176.488745,15.2558581 177.51414,15.5078125 L177.51414,17.3886719 C176.447729,17.042967 175.595198,16.8701172 174.956523,16.8701172 C174.177222,16.8701172 173.550276,17.1689423 173.075664,17.7666016 C172.601052,18.3642608 172.36375,19.1581982 172.36375,20.1484375 C172.36375,21.1621144 172.620095,21.9736298 173.132793,22.5830078 C173.645491,23.1923859 174.329566,23.4970703 175.185039,23.4970703 C175.96434,23.4970703 176.767066,23.3271501 177.593242,22.9873047 L177.593242,24.7890625 Z M179.334179,25 L179.334179,11.1220703 L181.935742,11.1220703 L181.935742,19.8496094 L182.102734,19.8496094 L185.539258,15.3496094 L187.701367,15.3496094 L184.528515,19.4804688 L188.694531,25 L185.530468,25 L182.102734,20.1748047 L181.935742,20.1748047 L181.935742,25 L179.334179,25 Z M193.319946,20.2275391 L193.319946,18.6015625 L206.319946,18.6015625 L206.319946,20.2275391 L193.319946,20.2275391 Z M218.325273,24.7890625 C217.247143,25.0761733 216.248129,25.2197266 215.328203,25.2197266 C213.787179,25.2197266 212.569906,24.7670944 211.676347,23.8618164 C210.782788,22.9565384 210.336015,21.7246172 210.336015,20.1660156 C210.336015,18.5898359 210.795972,17.3564498 211.715898,16.4658203 C212.635825,15.5751909 213.907296,15.1298828 215.530351,15.1298828 C216.315511,15.1298828 217.220776,15.2558581 218.246171,15.5078125 L218.246171,17.3886719 C217.17976,17.042967 216.327229,16.8701172 215.688554,16.8701172 C214.909254,16.8701172 214.282307,17.1689423 213.807695,17.7666016 C213.333083,18.3642608 213.095781,19.1581982 213.095781,20.1484375 C213.095781,21.1621144 213.352126,21.9736298 213.864824,22.5830078 C214.377522,23.1923859 215.061597,23.4970703 215.91707,23.4970703 C216.696371,23.4970703 217.499097,23.3271501 218.325273,22.9873047 L218.325273,24.7890625 Z M220.066211,25 L220.066211,11.1220703 L222.667773,11.1220703 L222.667773,17.1689453 C223.517387,15.8095635 224.613079,15.1298828 225.954882,15.1298828 C226.816215,15.1298828 227.495896,15.402341 227.993945,15.9472656 C228.491994,16.4921902 228.741015,17.2363234 228.741015,18.1796875 L228.741015,25 L226.139453,25 L226.139453,18.8212891 C226.139453,17.7255805 225.776175,17.1777344 225.049609,17.1777344 C224.223433,17.1777344 223.429496,17.7607364 222.667773,18.9267578 L222.667773,25 L220.066211,25 Z M239.024921,24.6748047 C237.788587,25.0380878 236.616724,25.2197266 235.509296,25.2197266 C233.89796,25.2197266 232.626489,24.7626999 231.694843,23.8486328 C230.763198,22.9345657 230.297382,21.6865313 230.297382,20.1044922 C230.297382,18.6103441 230.723648,17.4077194 231.576191,16.496582 C232.428734,15.5854447 233.555188,15.1298828 234.955585,15.1298828 C236.367702,15.1298828 237.398942,15.5751909 238.049335,16.4658203 C238.699729,17.3564498 239.024921,18.7656154 239.024921,20.6933594 L233.03957,20.6933594 C233.215352,22.5332123 234.226084,23.453125 236.071796,23.453125 C236.944848,23.453125 237.929213,23.2509786 239.024921,22.8466797 L239.024921,24.6748047 Z M233.004414,19.2255859 L236.467304,19.2255859 C236.467304,17.5790933 235.937036,16.7558594 234.876484,16.7558594 C233.798354,16.7558594 233.174336,17.5790933 233.004414,19.2255859 L233.004414,19.2255859 Z M248.113515,24.7890625 C247.035385,25.0761733 246.036371,25.2197266 245.116445,25.2197266 C243.575421,25.2197266 242.358149,24.7670944 241.464589,23.8618164 C240.57103,22.9565384 240.124257,21.7246172 240.124257,20.1660156 C240.124257,18.5898359 240.584214,17.3564498 241.50414,16.4658203 C242.424067,15.5751909 243.695538,15.1298828 245.318593,15.1298828 C246.103753,15.1298828 247.009018,15.2558581 248.034414,15.5078125 L248.034414,17.3886719 C246.968002,17.042967 246.115471,16.8701172 245.476796,16.8701172 C244.697496,16.8701172 244.070549,17.1689423 243.595937,17.7666016 C243.121325,18.3642608 242.884023,19.1581982 242.884023,20.1484375 C242.884023,21.1621144 243.140368,21.9736298 243.653066,22.5830078 C244.165764,23.1923859 244.849839,23.4970703 245.705312,23.4970703 C246.484613,23.4970703 247.287339,23.3271501 248.113515,22.9873047 L248.113515,24.7890625 Z M249.854453,25 L249.854453,11.1220703 L252.456015,11.1220703 L252.456015,19.8496094 L252.623007,19.8496094 L256.059531,15.3496094 L258.22164,15.3496094 L255.048789,19.4804688 L259.214804,25 L256.050742,25 L252.623007,20.1748047 L252.456015,20.1748047 L252.456015,25 L249.854453,25 Z M85.6005859,45.9472656 C84.9794891,46.1289072 84.4902362,46.2197266 84.1328125,46.2197266 C81.8769418,46.2197266 80.7490234,45.1650496 80.7490234,43.0556641 L80.7490234,37.9755859 L79.6679688,37.9755859 L79.6679688,36.3496094 L80.7490234,36.3496094 L80.7490234,34.7236328 L83.3505859,34.4248047 L83.3505859,36.3496094 L85.4160156,36.3496094 L85.4160156,37.9755859 L83.3505859,37.9755859 L83.3505859,42.7128906 C83.3505859,43.8964903 83.8339795,44.4882812 84.8007812,44.4882812 C85.0234386,44.4882812 85.2900375,44.447266 85.6005859,44.3652344 L85.6005859,45.9472656 Z M87.2008984,46 L87.2008984,32.1220703 L89.8024609,32.1220703 L89.8024609,38.1689453 C90.6520745,36.8095635 91.7477667,36.1298828 93.0895703,36.1298828 C93.9509027,36.1298828 94.6305834,36.402341 95.1286328,36.9472656 C95.6266821,37.4921902 95.8757031,38.2363234 95.8757031,39.1796875 L95.8757031,46 L93.2741406,46 L93.2741406,39.8212891 C93.2741406,38.7255805 92.910863,38.1777344 92.1842968,38.1777344 C91.3581208,38.1777344 90.5641835,38.7607364 89.8024609,39.9267578 L89.8024609,46 L87.2008984,46 Z M106.159609,45.6748047 C104.923275,46.0380878 103.751412,46.2197266 102.643984,46.2197266 C101.032648,46.2197266 99.7611765,45.7626999 98.8295312,44.8486328 C97.8978859,43.9345657 97.4320703,42.6865313 97.4320703,41.1044922 C97.4320703,39.6103441 97.8583355,38.4077194 98.7108788,37.496582 C99.5634222,36.5854447 100.689876,36.1298828 102.090273,36.1298828 C103.50239,36.1298828 104.53363,36.5751909 105.184023,37.4658203 C105.834417,38.3564498 106.159609,39.7656154 106.159609,41.6933594 L100.174258,41.6933594 C100.35004,43.5332123 101.360772,44.453125 103.206484,44.453125 C104.079536,44.453125 105.063901,44.2509786 106.159609,43.8466797 L106.159609,45.6748047 Z M100.139102,40.2255859 L103.601992,40.2255859 C103.601992,38.5790933 103.071724,37.7558594 102.011172,37.7558594 C100.933041,37.7558594 100.309024,38.5790933 100.139102,40.2255859 L100.139102,40.2255859 Z M113.34168,46 L113.34168,32.1220703 L115.943242,32.1220703 L115.943242,38.1689453 C116.611214,36.8095635 117.662961,36.1298828 119.098516,36.1298828 C120.258678,36.1298828 121.171266,36.5546833 121.836308,37.4042969 C122.501351,38.2539105 122.833867,39.4228441 122.833867,40.9111328 C122.833867,42.522469 122.458871,43.8100538 121.708867,44.7739258 C120.958863,45.7377978 119.95692,46.2197266 118.703008,46.2197266 C117.624877,46.2197266 116.704965,45.821293 115.943242,45.0244141 L115.459844,46 L113.34168,46 Z M115.943242,43.4775391 C116.576058,44.1806676 117.249879,44.5322266 117.964726,44.5322266 C118.603402,44.5322266 119.113162,44.2231476 119.494023,43.6049805 C119.874885,42.9868133 120.065312,42.1621145 120.065312,41.1308594 C120.065312,39.1562401 119.429577,38.1689453 118.158086,38.1689453 C117.390504,38.1689453 116.65223,38.6640575 115.943242,39.6542969 L115.943242,43.4775391 Z M129.276953,44.9628906 C128.409761,45.8007854 127.481059,46.2197266 126.49082,46.2197266 C125.647066,46.2197266 124.961526,45.9619166 124.43418,45.4462891 C123.906833,44.9306615 123.643164,44.2626994 123.643164,43.4423828 C123.643164,42.3759712 124.069429,41.5542021 124.921973,40.9770508 C125.774516,40.3998995 126.994718,40.1113281 128.582617,40.1113281 L129.276953,40.1113281 L129.276953,39.2324219 C129.276953,38.2304637 128.70567,37.7294922 127.563086,37.7294922 C126.549409,37.7294922 125.524028,38.0165987 124.486914,38.5908203 L124.486914,36.7978516 C125.664654,36.3525368 126.830658,36.1298828 127.984961,36.1298828 C130.510364,36.1298828 131.773047,37.1347556 131.773047,39.1445312 L131.773047,43.4160156 C131.773047,44.1718788 132.016208,44.5498047 132.502539,44.5498047 C132.59043,44.5498047 132.704687,44.5380861 132.845312,44.5146484 L132.906836,45.9736328 C132.356052,46.1376961 131.869729,46.2197266 131.447851,46.2197266 C130.38144,46.2197266 129.6959,45.8007854 129.391211,44.9628906 L129.276953,44.9628906 Z M129.276953,43.5654297 L129.276953,41.6054688 L128.661719,41.6054688 C126.98007,41.6054688 126.139258,42.1328072 126.139258,43.1875 C126.139258,43.5449237 126.260838,43.8452136 126.504004,44.0883789 C126.747169,44.3315442 127.047459,44.453125 127.404883,44.453125 C128.014261,44.453125 128.638278,44.1572295 129.276953,43.5654297 L129.276953,43.5654297 Z M141.529609,45.7890625 C140.451479,46.0761733 139.452465,46.2197266 138.532539,46.2197266 C136.991516,46.2197266 135.774243,45.7670944 134.880683,44.8618164 C133.987124,43.9565384 133.540351,42.7246172 133.540351,41.1660156 C133.540351,39.5898359 134.000308,38.3564498 134.920234,37.4658203 C135.840161,36.5751909 137.111632,36.1298828 138.734687,36.1298828 C139.519848,36.1298828 140.425112,36.2558581 141.450508,36.5078125 L141.450508,38.3886719 C140.384096,38.042967 139.531566,37.8701172 138.89289,37.8701172 C138.11359,37.8701172 137.486643,38.1689423 137.012031,38.7666016 C136.537419,39.3642608 136.300117,40.1581982 136.300117,41.1484375 C136.300117,42.1621144 136.556462,42.9736298 137.06916,43.5830078 C137.581858,44.1923859 138.265933,44.4970703 139.121406,44.4970703 C139.900707,44.4970703 140.703433,44.3271501 141.529609,43.9873047 L141.529609,45.7890625 Z M143.270547,46 L143.270547,32.1220703 L145.872109,32.1220703 L145.872109,40.8496094 L146.039101,40.8496094 L149.475625,36.3496094 L151.637734,36.3496094 L148.464883,40.4804688 L152.630898,46 L149.466836,46 L146.039101,41.1748047 L145.872109,41.1748047 L145.872109,46 L143.270547,46 Z M154.011484,48.9970703 L154.222422,47.1074219 C155.294693,47.5996118 156.317143,47.8457031 157.289804,47.8457031 C158.250747,47.8457031 158.945076,47.6406271 159.372812,47.2304688 C159.800549,46.8203104 160.014414,46.155278 160.014414,45.2353516 L160.014414,43.9169922 C159.381598,45.305671 158.33571,46 156.876719,46 C155.728275,46 154.817152,45.5708051 154.14332,44.7124023 C153.469489,43.8539996 153.132578,42.6923901 153.132578,41.2275391 C153.132578,39.6865157 153.510504,38.4516648 154.266367,37.5229492 C155.02223,36.5942336 156.027103,36.1298828 157.281015,36.1298828 C158.265395,36.1298828 159.176519,36.5283163 160.014414,37.3251953 L160.286875,36.3496094 L162.624765,36.3496094 L162.624765,43.7148438 C162.624765,45.1855542 162.535411,46.2460905 162.356699,46.8964844 C162.177987,47.5468783 161.830823,48.1005837 161.315195,48.5576172 C160.448003,49.3076209 159.226336,49.6826172 157.650156,49.6826172 C156.53101,49.6826172 155.318131,49.4541038 154.011484,48.9970703 L154.011484,48.9970703 Z M160.014414,42.4052734 L160.014414,38.8457031 C159.387458,38.1367152 158.731214,37.7822266 158.045664,37.7822266 C157.389411,37.7822266 156.867931,38.0810517 156.481211,38.6787109 C156.09449,39.2763702 155.901133,40.0790965 155.901133,41.0869141 C155.901133,42.9736422 156.507572,43.9169922 157.720469,43.9169922 C158.558363,43.9169922 159.323004,43.413091 160.014414,42.4052734 L160.014414,42.4052734 Z M165.095195,46 L165.095195,36.3496094 L167.696758,36.3496094 L167.696758,38.1689453 C168.370589,36.8095635 169.395969,36.1298828 170.772929,36.1298828 C170.936993,36.1298828 171.098124,36.1474608 171.256328,36.1826172 L171.256328,38.5029297 C170.887185,38.3681634 170.544415,38.3007812 170.228008,38.3007812 C169.190893,38.3007812 168.347151,38.8251901 167.696758,39.8740234 L167.696758,46 L165.095195,46 Z M176.60957,46.2197266 C175.103703,46.2197266 173.906938,45.7641647 173.019238,44.8530273 C172.131538,43.94189 171.687695,42.715828 171.687695,41.1748047 C171.687695,39.6162031 172.134468,38.3857467 173.028027,37.4833984 C173.921586,36.5810502 175.13593,36.1298828 176.671093,36.1298828 C178.212117,36.1298828 179.42939,36.5810502 180.322949,37.4833984 C181.216508,38.3857467 181.663281,39.6103438 181.663281,41.1572266 C181.663281,42.7392657 181.215043,43.9785111 180.318554,44.875 C179.422066,45.7714889 178.18575,46.2197266 176.60957,46.2197266 L176.60957,46.2197266 Z M176.653515,44.59375 C178.147663,44.59375 178.894726,43.4482536 178.894726,41.1572266 C178.894726,40.1083932 178.696974,39.2792999 178.301465,38.6699219 C177.905955,38.0605438 177.362503,37.7558594 176.671093,37.7558594 C175.985543,37.7558594 175.445021,38.0605438 175.049511,38.6699219 C174.654002,39.2792999 174.45625,40.1142525 174.45625,41.1748047 C174.45625,42.2236381 174.652537,43.055661 175.045117,43.6708984 C175.437697,44.2861359 175.973824,44.59375 176.653515,44.59375 L176.653515,44.59375 Z M189.301679,46 L189.301679,44.1806641 C188.457925,45.5400459 187.362233,46.2197266 186.01457,46.2197266 C185.153238,46.2197266 184.473557,45.9472683 183.975507,45.4023438 C183.477458,44.8574192 183.228437,44.113286 183.228437,43.1699219 L183.228437,36.3496094 L185.83,36.3496094 L185.83,42.5283203 C185.83,43.6240289 186.196207,44.171875 186.928632,44.171875 C187.748949,44.171875 188.539957,43.588873 189.301679,42.4228516 L189.301679,36.3496094 L191.903242,36.3496094 L191.903242,46 L189.301679,46 Z M194.435195,46 L194.435195,36.3496094 L197.036757,36.3496094 L197.036757,38.1689453 C197.886371,36.8095635 198.982063,36.1298828 200.323867,36.1298828 C201.185199,36.1298828 201.86488,36.402341 202.362929,36.9472656 C202.860979,37.4921902 203.11,38.2363234 203.11,39.1796875 L203.11,46 L200.508437,46 L200.508437,39.8212891 C200.508437,38.7255805 200.14516,38.1777344 199.418593,38.1777344 C198.592417,38.1777344 197.79848,38.7607364 197.036757,39.9267578 L197.036757,46 L194.435195,46 Z M211.609726,46 L211.609726,44.1806641 C210.941754,45.5400459 209.890007,46.2197266 208.454453,46.2197266 C207.294291,46.2197266 206.383167,45.7949261 205.721054,44.9453125 C205.058942,44.0956989 204.72789,42.9267653 204.72789,41.4384766 C204.72789,39.821281 205.101422,38.5322314 205.848496,37.5712891 C206.59557,36.6103468 207.598978,36.1298828 208.85875,36.1298828 C209.866567,36.1298828 210.78355,36.5283163 211.609726,37.3251953 L211.609726,32.1220703 L214.220078,32.1220703 L214.220078,46 L211.609726,46 Z M211.609726,38.8720703 C210.98277,38.1689418 210.311878,37.8173828 209.597031,37.8173828 C208.958356,37.8173828 208.448595,38.1249969 208.067734,38.7402344 C207.686873,39.3554718 207.496445,40.1816354 207.496445,41.21875 C207.496445,43.1933692 208.129251,44.1806641 209.394882,44.1806641 C210.168324,44.1806641 210.906598,43.6855518 211.609726,42.6953125 L211.609726,38.8720703 Z M226.007617,46.2197266 C224.50175,46.2197266 223.304984,45.7641647 222.417285,44.8530273 C221.529585,43.94189 221.085742,42.715828 221.085742,41.1748047 C221.085742,39.6162031 221.532515,38.3857467 222.426074,37.4833984 C223.319633,36.5810502 224.533976,36.1298828 226.06914,36.1298828 C227.610164,36.1298828 228.827437,36.5810502 229.720996,37.4833984 C230.614555,38.3857467 231.061328,39.6103438 231.061328,41.1572266 C231.061328,42.7392657 230.61309,43.9785111 229.716601,44.875 C228.820112,45.7714889 227.583797,46.2197266 226.007617,46.2197266 L226.007617,46.2197266 Z M226.051562,44.59375 C227.54571,44.59375 228.292773,43.4482536 228.292773,41.1572266 C228.292773,40.1083932 228.095021,39.2792999 227.699511,38.6699219 C227.304001,38.0605438 226.76055,37.7558594 226.06914,37.7558594 C225.38359,37.7558594 224.843068,38.0605438 224.447558,38.6699219 C224.052048,39.2792999 223.854296,40.1142525 223.854296,41.1748047 C223.854296,42.2236381 224.050584,43.055661 224.443164,43.6708984 C224.835744,44.2861359 225.371871,44.59375 226.051562,44.59375 L226.051562,44.59375 Z M233.004414,46 L233.004414,37.9755859 L231.677265,37.9755859 L231.677265,36.3496094 L233.004414,36.3496094 L233.004414,35.6552734 C233.004414,33.1533078 234.190925,31.9023438 236.563984,31.9023438 C237.331566,31.9023438 238.122574,32.0136708 238.937031,32.2363281 L238.937031,33.9941406 C238.198746,33.6835922 237.536643,33.5283203 236.950703,33.5283203 C236.054214,33.5283203 235.605976,34.2050714 235.605976,35.5585938 L235.605976,36.3496094 L238.049335,36.3496094 L238.049335,37.9755859 L235.605976,37.9755859 L235.605976,46 L233.004414,46 Z M249.661093,45.9472656 C249.039996,46.1289072 248.550743,46.2197266 248.19332,46.2197266 C245.937449,46.2197266 244.809531,45.1650496 244.809531,43.0556641 L244.809531,37.9755859 L243.728476,37.9755859 L243.728476,36.3496094 L244.809531,36.3496094 L244.809531,34.7236328 L247.411093,34.4248047 L247.411093,36.3496094 L249.476523,36.3496094 L249.476523,37.9755859 L247.411093,37.9755859 L247.411093,42.7128906 C247.411093,43.8964903 247.894487,44.4882812 248.861289,44.4882812 C249.083946,44.4882812 249.350545,44.447266 249.661093,44.3652344 L249.661093,45.9472656 Z M251.261406,46 L251.261406,32.1220703 L253.862968,32.1220703 L253.862968,38.1689453 C254.712582,36.8095635 255.808274,36.1298828 257.150078,36.1298828 C258.01141,36.1298828 258.691091,36.402341 259.18914,36.9472656 C259.687189,37.4921902 259.93621,38.2363234 259.93621,39.1796875 L259.93621,46 L257.334648,46 L257.334648,39.8212891 C257.334648,38.7255805 256.97137,38.1777344 256.244804,38.1777344 C255.418628,38.1777344 254.624691,38.7607364 253.862968,39.9267578 L253.862968,46 L251.261406,46 Z M262.362695,46 L262.362695,36.3496094 L264.964257,36.3496094 L264.964257,46 L262.362695,46 Z M262.362695,34.7236328 L262.362695,32.5527344 L264.964257,32.5527344 L264.964257,34.7236328 L262.362695,34.7236328 Z M267.241328,45.6923828 L267.241328,43.7851562 C268.530396,44.3242214 269.631948,44.59375 270.546015,44.59375 C271.612427,44.59375 272.145624,44.2304724 272.145624,43.5039062 C272.145624,43.0351539 271.706176,42.6250018 270.827265,42.2734375 L269.948359,41.921875 C268.993276,41.5351543 268.310666,41.1191429 267.900507,40.6738281 C267.490349,40.2285134 267.285273,39.6777377 267.285273,39.0214844 C267.285273,38.1074173 267.633902,37.3969752 268.331171,36.8901367 C269.02844,36.3832982 270.004017,36.1298828 271.257929,36.1298828 C272.043089,36.1298828 272.97765,36.2441395 274.06164,36.4726562 L274.06164,38.3007812 C273.018666,37.9374982 272.154417,37.7558594 271.468867,37.7558594 C270.390736,37.7558594 269.851679,38.0898404 269.851679,38.7578125 C269.851679,39.1972678 270.250113,39.5693344 271.046992,39.8740234 L271.802851,40.1640625 C272.933716,40.591799 273.720329,41.0253884 274.162714,41.4648438 C274.605099,41.9042991 274.826288,42.4697231 274.826288,43.1611328 C274.826288,44.0693405 274.449827,44.8061495 273.696894,45.371582 C272.94396,45.9370145 271.96399,46.2197266 270.756953,46.2197266 C269.59679,46.2197266 268.424927,46.0439471 267.241328,45.6923828 L267.241328,45.6923828 Z M80.6259766,67 L80.6259766,57.3496094 L83.2275391,57.3496094 L83.2275391,67 L80.6259766,67 Z M80.6259766,55.7236328 L80.6259766,53.5527344 L83.2275391,53.5527344 L83.2275391,55.7236328 L80.6259766,55.7236328 Z M85.7594922,67 L85.7594922,57.3496094 L88.3610547,57.3496094 L88.3610547,59.1689453 C89.2106683,57.8095635 90.3063604,57.1298828 91.648164,57.1298828 C92.5094965,57.1298828 93.1891772,57.402341 93.6872265,57.9472656 C94.1852759,58.4921902 94.4342968,59.2363234 94.4342968,60.1796875 L94.4342968,67 L91.8327343,67 L91.8327343,60.8212891 C91.8327343,59.7255805 91.4694567,59.1777344 90.7428906,59.1777344 C89.9167146,59.1777344 89.1227772,59.7607364 88.3610547,60.9267578 L88.3610547,67 L85.7594922,67 Z M99.2426171,67 L95.5599999,57.3496094 L98.3021874,57.3496094 L101.00043,64.3105469 L103.681094,57.3496094 L105.561953,57.3496094 L101.84418,67 L99.2426171,67 Z M114.676914,66.6748047 C113.44058,67.0380878 112.268716,67.2197266 111.161289,67.2197266 C109.549953,67.2197266 108.278481,66.7626999 107.346836,65.8486328 C106.415191,64.9345657 105.949375,63.6865313 105.949375,62.1044922 C105.949375,60.6103441 106.37564,59.4077194 107.228184,58.496582 C108.080727,57.5854447 109.20718,57.1298828 110.607578,57.1298828 C112.019694,57.1298828 113.050934,57.5751909 113.701328,58.4658203 C114.351722,59.3564498 114.676914,60.7656154 114.676914,62.6933594 L108.691562,62.6933594 C108.867345,64.5332123 109.878077,65.453125 111.723789,65.453125 C112.59684,65.453125 113.581205,65.2509786 114.676914,64.8466797 L114.676914,66.6748047 Z M108.656406,61.2255859 L112.119297,61.2255859 C112.119297,59.5790933 111.589029,58.7558594 110.528476,58.7558594 C109.450346,58.7558594 108.826329,59.5790933 108.656406,61.2255859 L108.656406,61.2255859 Z M116.391484,66.6923828 L116.391484,64.7851562 C117.680553,65.3242214 118.782105,65.59375 119.696172,65.59375 C120.762583,65.59375 121.295781,65.2304724 121.295781,64.5039062 C121.295781,64.0351539 120.856332,63.6250018 119.977422,63.2734375 L119.098516,62.921875 C118.143433,62.5351543 117.460822,62.1191429 117.050664,61.6738281 C116.640506,61.2285134 116.43543,60.6777377 116.43543,60.0214844 C116.43543,59.1074173 116.784059,58.3969752 117.481328,57.8901367 C118.178597,57.3832982 119.154173,57.1298828 120.408086,57.1298828 C121.193246,57.1298828 122.127807,57.2441395 123.211797,57.4726562 L123.211797,59.3007812 C122.168823,58.9374982 121.304574,58.7558594 120.619023,58.7558594 C119.540893,58.7558594 119.001836,59.0898404 119.001836,59.7578125 C119.001836,60.1972678 119.400269,60.5693344 120.197148,60.8740234 L120.953008,61.1640625 C122.083873,61.591799 122.870486,62.0253884 123.312871,62.4648438 C123.755256,62.9042991 123.976445,63.4697231 123.976445,64.1611328 C123.976445,65.0693405 123.599984,65.8061495 122.847051,66.371582 C122.094117,66.9370145 121.114147,67.2197266 119.907109,67.2197266 C118.746947,67.2197266 117.575084,67.0439471 116.391484,66.6923828 L116.391484,66.6923828 Z M131.078711,66.9472656 C130.457614,67.1289072 129.968361,67.2197266 129.610937,67.2197266 C127.355067,67.2197266 126.227148,66.1650496 126.227148,64.0556641 L126.227148,58.9755859 L125.146094,58.9755859 L125.146094,57.3496094 L126.227148,57.3496094 L126.227148,55.7236328 L128.828711,55.4248047 L128.828711,57.3496094 L130.89414,57.3496094 L130.89414,58.9755859 L128.828711,58.9755859 L128.828711,63.7128906 C128.828711,64.8964903 129.312104,65.4882812 130.278906,65.4882812 C130.501563,65.4882812 130.768162,65.447266 131.078711,65.3652344 L131.078711,66.9472656 Z M132.679023,67 L132.679023,57.3496094 L135.175117,57.3496094 L135.175117,59.1689453 C135.93684,57.8095635 137.020813,57.1298828 138.42707,57.1298828 C139.153636,57.1298828 139.751287,57.308592 140.220039,57.6660156 C140.688791,58.0234393 140.975898,58.5244108 141.081367,59.1689453 C141.983715,57.8095635 143.073548,57.1298828 144.350898,57.1298828 C146.114579,57.1298828 146.996406,58.1025293 146.996406,60.0478516 L146.996406,67 L144.500312,67 L144.500312,60.9003906 C144.500312,59.7578068 144.119457,59.1865234 143.357734,59.1865234 C142.578433,59.1865234 141.819652,59.7490178 141.081367,60.8740234 L141.081367,67 L138.585273,67 L138.585273,60.9003906 C138.585273,59.7519474 138.201488,59.1777344 137.433906,59.1777344 C136.666324,59.1777344 135.913402,59.7431584 135.175117,60.8740234 L135.175117,67 L132.679023,67 Z M157.271523,66.6748047 C156.035189,67.0380878 154.863326,67.2197266 153.755898,67.2197266 C152.144562,67.2197266 150.87309,66.7626999 149.941445,65.8486328 C149.0098,64.9345657 148.543984,63.6865313 148.543984,62.1044922 C148.543984,60.6103441 148.970249,59.4077194 149.822793,58.496582 C150.675336,57.5854447 151.80179,57.1298828 153.202187,57.1298828 C154.614304,57.1298828 155.645543,57.5751909 156.295937,58.4658203 C156.946331,59.3564498 157.271523,60.7656154 157.271523,62.6933594 L151.286172,62.6933594 C151.461954,64.5332123 152.472686,65.453125 154.318398,65.453125 C155.191449,65.453125 156.175815,65.2509786 157.271523,64.8466797 L157.271523,66.6748047 Z M151.251015,61.2255859 L154.713906,61.2255859 C154.713906,59.5790933 154.183638,58.7558594 153.123086,58.7558594 C152.044955,58.7558594 151.420938,59.5790933 151.251015,61.2255859 L151.251015,61.2255859 Z M159.240976,67 L159.240976,57.3496094 L161.842539,57.3496094 L161.842539,59.1689453 C162.692152,57.8095635 163.787845,57.1298828 165.129648,57.1298828 C165.990981,57.1298828 166.670661,57.402341 167.168711,57.9472656 C167.66676,58.4921902 167.915781,59.2363234 167.915781,60.1796875 L167.915781,67 L165.314219,67 L165.314219,60.8212891 C165.314219,59.7255805 164.950941,59.1777344 164.224375,59.1777344 C163.398199,59.1777344 162.604261,59.7607364 161.842539,60.9267578 L161.842539,67 L159.240976,67 Z M175.316875,66.9472656 C174.695778,67.1289072 174.206525,67.2197266 173.849101,67.2197266 C171.593231,67.2197266 170.465312,66.1650496 170.465312,64.0556641 L170.465312,58.9755859 L169.384258,58.9755859 L169.384258,57.3496094 L170.465312,57.3496094 L170.465312,55.7236328 L173.066875,55.4248047 L173.066875,57.3496094 L175.132304,57.3496094 L175.132304,58.9755859 L173.066875,58.9755859 L173.066875,63.7128906 C173.066875,64.8964903 173.550268,65.4882812 174.51707,65.4882812 C174.739727,65.4882812 175.006326,65.447266 175.316875,65.3652344 L175.316875,66.9472656 Z M182.129804,70.4716797 L182.129804,57.3496094 L184.731367,57.3496094 L184.731367,59.1689453 C185.399339,57.8095635 186.451086,57.1298828 187.88664,57.1298828 C189.046802,57.1298828 189.959391,57.5546833 190.624433,58.4042969 C191.289476,59.2539105 191.621992,60.4228441 191.621992,61.9111328 C191.621992,63.5283284 191.246996,64.817378 190.496992,65.7783203 C189.746988,66.7392626 188.742115,67.2197266 187.482343,67.2197266 C186.468666,67.2197266 185.551683,66.821293 184.731367,66.0244141 L184.731367,70.4716797 L182.129804,70.4716797 Z M184.731367,64.4775391 C185.364183,65.1806676 186.038004,65.5322266 186.752851,65.5322266 C187.391526,65.5322266 187.901287,65.2231476 188.282148,64.6049805 C188.663009,63.9868133 188.853437,63.1621145 188.853437,62.1308594 C188.853437,60.1562401 188.217701,59.1689453 186.946211,59.1689453 C186.178629,59.1689453 185.440355,59.6640575 184.731367,60.6542969 L184.731367,64.4775391 Z M193.336562,67 L193.336562,57.3496094 L195.938125,57.3496094 L195.938125,59.1689453 C196.611956,57.8095635 197.637337,57.1298828 199.014297,57.1298828 C199.17836,57.1298828 199.339491,57.1474608 199.497695,57.1826172 L199.497695,59.5029297 C199.128552,59.3681634 198.785782,59.3007812 198.469375,59.3007812 C197.43226,59.3007812 196.588519,59.8251901 195.938125,60.8740234 L195.938125,67 L193.336562,67 Z M204.850937,67.2197266 C203.34507,67.2197266 202.148305,66.7641647 201.260605,65.8530273 C200.372905,64.94189 199.929062,63.715828 199.929062,62.1748047 C199.929062,60.6162031 200.375835,59.3857467 201.269394,58.4833984 C202.162953,57.5810502 203.377297,57.1298828 204.912461,57.1298828 C206.453484,57.1298828 207.670757,57.5810502 208.564316,58.4833984 C209.457875,59.3857467 209.904648,60.6103438 209.904648,62.1572266 C209.904648,63.7392657 209.45641,64.9785111 208.559922,65.875 C207.663433,66.7714889 206.427117,67.2197266 204.850937,67.2197266 L204.850937,67.2197266 Z M204.894882,65.59375 C206.389031,65.59375 207.136093,64.4482536 207.136093,62.1572266 C207.136093,61.1083932 206.938341,60.2792999 206.542832,59.6699219 C206.147322,59.0605438 205.60387,58.7558594 204.912461,58.7558594 C204.22691,58.7558594 203.686388,59.0605438 203.290879,59.6699219 C202.895369,60.2792999 202.697617,61.1142525 202.697617,62.1748047 C202.697617,63.2236381 202.893904,64.055661 203.286484,64.6708984 C203.679064,65.2861359 204.215192,65.59375 204.894882,65.59375 L204.894882,65.59375 Z M211.847734,67 L211.847734,58.9755859 L210.520586,58.9755859 L210.520586,57.3496094 L211.847734,57.3496094 L211.847734,56.6552734 C211.847734,54.1533078 213.034246,52.9023438 215.407304,52.9023438 C216.174886,52.9023438 216.965894,53.0136708 217.780351,53.2363281 L217.780351,54.9941406 C217.042066,54.6835922 216.379963,54.5283203 215.794023,54.5283203 C214.897534,54.5283203 214.449296,55.2050714 214.449296,56.5585938 L214.449296,57.3496094 L216.892656,57.3496094 L216.892656,58.9755859 L214.449296,58.9755859 L214.449296,67 L211.847734,67 Z M226.174609,66.6748047 C224.938275,67.0380878 223.766411,67.2197266 222.658984,67.2197266 C221.047648,67.2197266 219.776176,66.7626999 218.844531,65.8486328 C217.912886,64.9345657 217.44707,63.6865313 217.44707,62.1044922 C217.44707,60.6103441 217.873335,59.4077194 218.725878,58.496582 C219.578422,57.5854447 220.704875,57.1298828 222.105273,57.1298828 C223.517389,57.1298828 224.548629,57.5751909 225.199023,58.4658203 C225.849417,59.3564498 226.174609,60.7656154 226.174609,62.6933594 L220.189257,62.6933594 C220.36504,64.5332123 221.375772,65.453125 223.221484,65.453125 C224.094535,65.453125 225.0789,65.2509786 226.174609,64.8466797 L226.174609,66.6748047 Z M220.154101,61.2255859 L223.616992,61.2255859 C223.616992,59.5790933 223.086724,58.7558594 222.026171,58.7558594 C220.948041,58.7558594 220.324024,59.5790933 220.154101,61.2255859 L220.154101,61.2255859 Z M227.889179,66.6923828 L227.889179,64.7851562 C229.178248,65.3242214 230.2798,65.59375 231.193867,65.59375 C232.260278,65.59375 232.793476,65.2304724 232.793476,64.5039062 C232.793476,64.0351539 232.354027,63.6250018 231.475117,63.2734375 L230.59621,62.921875 C229.641128,62.5351543 228.958517,62.1191429 228.548359,61.6738281 C228.138201,61.2285134 227.933125,60.6777377 227.933125,60.0214844 C227.933125,59.1074173 228.281754,58.3969752 228.979023,57.8901367 C229.676292,57.3832982 230.651868,57.1298828 231.905781,57.1298828 C232.690941,57.1298828 233.625502,57.2441395 234.709492,57.4726562 L234.709492,59.3007812 C233.666518,58.9374982 232.802269,58.7558594 232.116718,58.7558594 C231.038588,58.7558594 230.499531,59.0898404 230.499531,59.7578125 C230.499531,60.1972678 230.897964,60.5693344 231.694843,60.8740234 L232.450703,61.1640625 C233.581568,61.591799 234.368181,62.0253884 234.810566,62.4648438 C235.252951,62.9042991 235.47414,63.4697231 235.47414,64.1611328 C235.47414,65.0693405 235.097679,65.8061495 234.344746,66.371582 C233.591812,66.9370145 232.611842,67.2197266 231.404804,67.2197266 C230.244642,67.2197266 229.072779,67.0439471 227.889179,66.6923828 L227.889179,66.6923828 Z M237.346914,66.6923828 L237.346914,64.7851562 C238.635983,65.3242214 239.737534,65.59375 240.651601,65.59375 C241.718013,65.59375 242.25121,65.2304724 242.25121,64.5039062 C242.25121,64.0351539 241.811762,63.6250018 240.932851,63.2734375 L240.053945,62.921875 C239.098862,62.5351543 238.416252,62.1191429 238.006093,61.6738281 C237.595935,61.2285134 237.390859,60.6777377 237.390859,60.0214844 C237.390859,59.1074173 237.739488,58.3969752 238.436757,57.8901367 C239.134026,57.3832982 240.109603,57.1298828 241.363515,57.1298828 C242.148675,57.1298828 243.083236,57.2441395 244.167226,57.4726562 L244.167226,59.3007812 C243.124252,58.9374982 242.260003,58.7558594 241.574453,58.7558594 C240.496322,58.7558594 239.957265,59.0898404 239.957265,59.7578125 C239.957265,60.1972678 240.355699,60.5693344 241.152578,60.8740234 L241.908437,61.1640625 C243.039302,61.591799 243.825915,62.0253884 244.2683,62.4648438 C244.710685,62.9042991 244.931875,63.4697231 244.931875,64.1611328 C244.931875,65.0693405 244.555413,65.8061495 243.80248,66.371582 C243.049547,66.9370145 242.069576,67.2197266 240.862539,67.2197266 C239.702377,67.2197266 238.530513,67.0439471 237.346914,66.6923828 L237.346914,66.6923828 Z M247.059531,67 L247.059531,57.3496094 L249.661093,57.3496094 L249.661093,67 L247.059531,67 Z M247.059531,55.7236328 L247.059531,53.5527344 L249.661093,53.5527344 L249.661093,55.7236328 L247.059531,55.7236328 Z M256.244804,67.2197266 C254.738937,67.2197266 253.542172,66.7641647 252.654472,65.8530273 C251.766772,64.94189 251.322929,63.715828 251.322929,62.1748047 C251.322929,60.6162031 251.769702,59.3857467 252.663261,58.4833984 C253.55682,57.5810502 254.771164,57.1298828 256.306328,57.1298828 C257.847351,57.1298828 259.064624,57.5810502 259.958183,58.4833984 C260.851742,59.3857467 261.298515,60.6103438 261.298515,62.1572266 C261.298515,63.7392657 260.850277,64.9785111 259.953789,65.875 C259.0573,66.7714889 257.820984,67.2197266 256.244804,67.2197266 L256.244804,67.2197266 Z M256.288749,65.59375 C257.782898,65.59375 258.52996,64.4482536 258.52996,62.1572266 C258.52996,61.1083932 258.332208,60.2792999 257.936699,59.6699219 C257.541189,59.0605438 256.997737,58.7558594 256.306328,58.7558594 C255.620777,58.7558594 255.080255,59.0605438 254.684746,59.6699219 C254.289236,60.2792999 254.091484,61.1142525 254.091484,62.1748047 C254.091484,63.2236381 254.287771,64.055661 254.680351,64.6708984 C255.072931,65.2861359 255.609059,65.59375 256.288749,65.59375 L256.288749,65.59375 Z M262.96914,67 L262.96914,57.3496094 L265.570703,57.3496094 L265.570703,59.1689453 C266.420316,57.8095635 267.516008,57.1298828 268.857812,57.1298828 C269.719144,57.1298828 270.398825,57.402341 270.896874,57.9472656 C271.394924,58.4921902 271.643945,59.2363234 271.643945,60.1796875 L271.643945,67 L269.042382,67 L269.042382,60.8212891 C269.042382,59.7255805 268.679105,59.1777344 267.952538,59.1777344 C267.126362,59.1777344 266.332425,59.7607364 265.570703,60.9267578 L265.570703,67 L262.96914,67 Z M278.798945,65.9628906 C277.931753,66.8007854 277.003051,67.2197266 276.012812,67.2197266 C275.169058,67.2197266 274.483518,66.9619166 273.956171,66.4462891 C273.428825,65.9306615 273.165156,65.2626994 273.165156,64.4423828 C273.165156,63.3759712 273.591421,62.5542021 274.443964,61.9770508 C275.296508,61.3998995 276.51671,61.1113281 278.104609,61.1113281 L278.798945,61.1113281 L278.798945,60.2324219 C278.798945,59.2304637 278.227661,58.7294922 277.085078,58.7294922 C276.071401,58.7294922 275.04602,59.0165987 274.008906,59.5908203 L274.008906,57.7978516 C275.186646,57.3525368 276.35265,57.1298828 277.506953,57.1298828 C280.032356,57.1298828 281.295038,58.1347556 281.295038,60.1445312 L281.295038,64.4160156 C281.295038,65.1718788 281.5382,65.5498047 282.024531,65.5498047 C282.112422,65.5498047 282.226678,65.5380861 282.367304,65.5146484 L282.428828,66.9736328 C281.878044,67.1376961 281.39172,67.2197266 280.969843,67.2197266 C279.903432,67.2197266 279.217892,66.8007854 278.913203,65.9628906 L278.798945,65.9628906 Z M278.798945,64.5654297 L278.798945,62.6054688 L278.18371,62.6054688 C276.502061,62.6054688 275.661249,63.1328072 275.661249,64.1875 C275.661249,64.5449237 275.78283,64.8452136 276.025995,65.0883789 C276.269161,65.3315442 276.569451,65.453125 276.926874,65.453125 C277.536252,65.453125 278.16027,65.1572295 278.798945,64.5654297 L278.798945,64.5654297 Z M283.93246,67 L283.93246,53.1220703 L286.534023,53.1220703 L286.534023,67 L283.93246,67 Z" id="BrokerCheck---check" fill="#FFFFFF" sketch:type="MSShapeGroup"></path>
            <path d="M303,57.9834617 L303.689728,57.2937337 C304.081658,56.9018037 304.717672,56.9023739 305.109032,57.2937337 L309.033803,61.2185049 C309.425733,61.6104348 309.425163,62.2464489 309.033803,62.6378087 L305.109032,66.5625799 C304.717102,66.9545098 304.081088,66.9539396 303.689728,66.5625799 L303,65.8728518 L306.944695,61.9281568 L303,57.9834617 Z" id="Rectangle-3-Copy" fill="#FFFFFF" sketch:type="MSShapeGroup"></path>
            <path d="M295,57.9834617 L295.689728,57.2937337 C296.081658,56.9018037 296.717672,56.9023739 297.109032,57.2937337 L301.033803,61.2185049 C301.425733,61.6104348 301.425163,62.2464489 301.033803,62.6378087 L297.109032,66.5625799 C296.717102,66.9545098 296.081088,66.9539396 295.689728,66.5625799 L295,65.8728518 L298.944695,61.9281568 L295,57.9834617 Z" id="Rectangle-3-Copy-2" fill="#FFFFFF" sketch:type="MSShapeGroup"></path>
        </g>
    </g>
</svg>