<?xml version="1.0" encoding="UTF-8" standalone="no"?>
<svg width="322px" height="164px" viewBox="0 0 322 164" version="1.1" xmlns="http://www.w3.org/2000/svg" xmlns:xlink="http://www.w3.org/1999/xlink" xmlns:sketch="http://www.bohemiancoding.com/sketch/ns">
    <!-- Generator: Sketch 3.4.3 (16044) - http://www.bohemiancoding.com/sketch -->
    <title>BC-box-check_xsm_REV</title>
    <desc>Created with Sketch.</desc>
    <defs></defs>
    <g id="Badges" stroke="none" stroke-width="1" fill="none" fill-rule="evenodd" sketch:type="MSPage">
        <g id="BC-box-check_xsm_REV" sketch:type="MSLayerGroup">
            <rect id="Rectangle-17" stroke="#FFFFFF" stroke-width="2" sketch:type="MSShapeGroup" x="0" y="0" width="322" height="84"></rect>
            <rect id="Rectangle-17-Copy-2" stroke="#FFFFFF" stroke-width="2" sketch:type="MSShapeGroup" x="0" y="0" width="322" height="164"></rect>
            <path d="M25.8623047,36.3974609 C23.3915892,36.3974609 21.4830796,35.6723705 20.1367188,34.222168 C18.7903579,32.7719654 18.1171875,30.7184378 18.1171875,28.0615234 C18.1171875,25.4117706 18.8028903,23.3564526 20.1743164,21.8955078 C21.5457425,20.434563 23.4775266,19.7041016 25.9697266,19.7041016 C27.3948639,19.7041016 29.063467,19.9368466 30.9755859,20.4023438 L30.9755859,22.5185547 C28.7984917,21.7665978 27.1191465,21.390625 25.9375,21.390625 C24.2115799,21.390625 22.8759813,21.974278 21.9306641,23.1416016 C20.9853468,24.3089251 20.5126953,25.9560441 20.5126953,28.0830078 C20.5126953,30.1097107 21.0175731,31.7084902 22.0273438,32.8793945 C23.0371144,34.0502988 24.4156814,34.6357422 26.1630859,34.6357422 C27.6669997,34.6357422 29.2783117,34.1738327 30.9970703,33.25 L30.9970703,35.1835938 C29.4287031,35.9928426 27.7171317,36.3974609 25.8623047,36.3974609 L25.8623047,36.3974609 Z M33.3378906,36 L33.3378906,19.0380859 L35.4541016,19.0380859 L35.4541016,26.5253906 C36.5712946,24.89257 37.9391195,24.0761719 39.5576172,24.0761719 C40.5673879,24.0761719 41.3730439,24.3966439 41.9746094,25.0375977 C42.5761749,25.6785514 42.8769531,26.5397081 42.8769531,27.6210938 L42.8769531,36 L40.7607422,36 L40.7607422,28.3085938 C40.7607422,27.442053 40.6336276,26.8243834 40.3793945,26.4555664 C40.1251615,26.0867495 39.70443,25.9023438 39.1171875,25.9023438 C37.8209571,25.9023438 36.5999406,26.7509681 35.4541016,28.4482422 L35.4541016,36 L33.3378906,36 Z M54.5419922,35.6240234 C53.1240163,36.0537131 51.9101613,36.2685547 50.9003906,36.2685547 C49.181632,36.2685547 47.7797906,35.6974341 46.6948242,34.5551758 C45.6098579,33.4129175 45.0673828,31.9323008 45.0673828,30.1132812 C45.0673828,28.3443922 45.5454054,26.8942114 46.5014648,25.7626953 C47.4575243,24.6311792 48.6803311,24.0654297 50.1699219,24.0654297 C51.5807362,24.0654297 52.6710573,24.5667268 53.440918,25.5693359 C54.2107786,26.5719451 54.5957031,27.9970611 54.5957031,29.8447266 L54.5849609,30.5 L47.2265625,30.5 C47.5345067,33.2714982 48.8915895,34.6572266 51.2978516,34.6572266 C52.1787153,34.6572266 53.2600847,34.4209008 54.5419922,33.9482422 L54.5419922,35.6240234 Z M47.3232422,28.9101562 L52.46875,28.9101562 C52.46875,26.7402235 51.6595133,25.6552734 50.0410156,25.6552734 C48.4153565,25.6552734 47.509441,26.7402235 47.3232422,28.9101562 L47.3232422,28.9101562 Z M61.8027344,36.2685547 C60.2272057,36.2685547 58.9202526,35.6849017 57.8818359,34.5175781 C56.8434193,33.3502546 56.3242188,31.8785896 56.3242188,30.1025391 C56.3242188,28.2047431 56.8380482,26.7259168 57.8657227,25.6660156 C58.8933971,24.6061145 60.3274648,24.0761719 62.1679688,24.0761719 C63.0774785,24.0761719 64.0943954,24.2014961 65.21875,24.4521484 L65.21875,26.2246094 C64.0227805,25.8736962 63.0488319,25.6982422 62.296875,25.6982422 C61.2154894,25.6982422 60.3471712,26.1046509 59.6918945,26.9174805 C59.0366178,27.7303101 58.7089844,28.8134698 58.7089844,30.1669922 C58.7089844,31.4775456 59.0455696,32.5374308 59.71875,33.3466797 C60.3919304,34.1559285 61.272781,34.5605469 62.3613281,34.5605469 C63.3281298,34.5605469 64.3235626,34.313479 65.3476562,33.8193359 L65.3476562,35.6455078 C63.9798109,36.0608745 62.7981821,36.2685547 61.8027344,36.2685547 L61.8027344,36.2685547 Z M67.5166016,36 L67.5166016,19.0380859 L69.6328125,19.0380859 L69.6328125,29.9951172 L74.5742188,24.3339844 L76.8515625,24.3339844 L72.1357422,29.7802734 L77.8291016,36 L75.1220703,36 L69.6328125,30.0166016 L69.6328125,36 L67.5166016,36 Z M88.8378906,36.2685547 C87.7636665,36.2685547 86.9257843,35.9606151 86.3242188,35.3447266 C85.7226532,34.7288381 85.421875,33.8730524 85.421875,32.7773438 L85.421875,25.9238281 L83.9609375,25.9238281 L83.9609375,24.3339844 L85.421875,24.3339844 L85.421875,22.2177734 L87.5380859,22.0136719 L87.5380859,24.3339844 L90.5888672,24.3339844 L90.5888672,25.9238281 L87.5380859,25.9238281 L87.5380859,32.390625 C87.5380859,33.9160233 88.1969335,34.6787109 89.5146484,34.6787109 C89.7939467,34.6787109 90.1341126,34.6321619 90.5351562,34.5390625 L90.5351562,36 C89.8834603,36.1790374 89.3177107,36.2685547 88.8378906,36.2685547 L88.8378906,36.2685547 Z M92.5644531,36 L92.5644531,19.0380859 L94.6806641,19.0380859 L94.6806641,26.5253906 C95.7978571,24.89257 97.165682,24.0761719 98.7841797,24.0761719 C99.7939504,24.0761719 100.599606,24.3966439 101.201172,25.0375977 C101.802737,25.6785514 102.103516,26.5397081 102.103516,27.6210938 L102.103516,36 L99.9873047,36 L99.9873047,28.3085938 C99.9873047,27.442053 99.8601901,26.8243834 99.605957,26.4555664 C99.351724,26.0867495 98.9309925,25.9023438 98.34375,25.9023438 C97.0475196,25.9023438 95.8265031,26.7509681 94.6806641,28.4482422 L94.6806641,36 L92.5644531,36 Z M113.768555,35.6240234 C112.350579,36.0537131 111.136724,36.2685547 110.126953,36.2685547 C108.408195,36.2685547 107.006353,35.6974341 105.921387,34.5551758 C104.83642,33.4129175 104.293945,31.9323008 104.293945,30.1132812 C104.293945,28.3443922 104.771968,26.8942114 105.728027,25.7626953 C106.684087,24.6311792 107.906894,24.0654297 109.396484,24.0654297 C110.807299,24.0654297 111.89762,24.5667268 112.66748,25.5693359 C113.437341,26.5719451 113.822266,27.9970611 113.822266,29.8447266 L113.811523,30.5 L106.453125,30.5 C106.761069,33.2714982 108.118152,34.6572266 110.524414,34.6572266 C111.405278,34.6572266 112.486647,34.4209008 113.768555,33.9482422 L113.768555,35.6240234 Z M106.549805,28.9101562 L111.695312,28.9101562 C111.695312,26.7402235 110.886076,25.6552734 109.267578,25.6552734 C107.641919,25.6552734 106.736004,26.7402235 106.549805,28.9101562 L106.549805,28.9101562 Z M122.435547,36.1289062 L122.435547,19.0380859 L124.551758,19.0380859 L124.551758,26.5253906 C125.418299,24.89257 126.71809,24.0761719 128.451172,24.0761719 C129.854825,24.0761719 130.959469,24.588211 131.765137,25.6123047 C132.570805,26.6363983 132.973633,28.0364495 132.973633,29.8125 C132.973633,31.7461034 132.517094,33.3054954 131.604004,34.4907227 C130.690913,35.6759499 129.489591,36.2685547 128,36.2685547 C126.617832,36.2685547 125.468429,35.7386121 124.551758,34.6787109 L124.293945,36.1289062 L122.435547,36.1289062 Z M124.551758,33.2177734 C125.640305,34.1917366 126.678706,34.6787109 127.666992,34.6787109 C129.700857,34.6787109 130.717773,33.1282707 130.717773,30.0273438 C130.717773,27.291653 129.815439,25.9238281 128.010742,25.9238281 C126.829096,25.9238281 125.676112,26.5647722 124.551758,27.8466797 L124.551758,33.2177734 Z M141.297852,34.5175781 C140.030267,35.6849017 138.809251,36.2685547 137.634766,36.2685547 C136.667964,36.2685547 135.865889,35.9659861 135.228516,35.3608398 C134.591143,34.7556936 134.272461,33.9912156 134.272461,33.0673828 C134.272461,31.7926369 134.807775,30.8133172 135.878418,30.1293945 C136.949061,29.4454718 138.483388,29.1035156 140.481445,29.1035156 L140.986328,29.1035156 L140.986328,27.6962891 C140.986328,26.3427667 140.291674,25.6660156 138.902344,25.6660156 C137.785151,25.6660156 136.578457,26.0097622 135.282227,26.6972656 L135.282227,24.9462891 C136.707364,24.366208 138.042963,24.0761719 139.289062,24.0761719 C140.592454,24.0761719 141.553871,24.3697887 142.17334,24.9570312 C142.792809,25.5442738 143.102539,26.4573506 143.102539,27.6962891 L143.102539,32.9814453 C143.102539,34.1917378 143.474931,34.796875 144.219727,34.796875 C144.312826,34.796875 144.448892,34.7825522 144.62793,34.7539062 L144.77832,35.9248047 C144.2985,36.1539725 143.768558,36.2685547 143.188477,36.2685547 C142.20019,36.2685547 141.569988,35.6849017 141.297852,34.5175781 L141.297852,34.5175781 Z M140.986328,33.3681641 L140.986328,30.3496094 L140.277344,30.328125 C139.117182,30.328125 138.17904,30.5483376 137.462891,30.9887695 C136.746741,31.4292014 136.388672,32.0074834 136.388672,32.7236328 C136.388672,33.2320989 136.567707,33.6617821 136.925781,34.0126953 C137.283856,34.3636085 137.720701,34.5390625 138.236328,34.5390625 C139.117192,34.5390625 140.033849,34.1487669 140.986328,33.3681641 L140.986328,33.3681641 Z M150.986328,36.2685547 C149.410799,36.2685547 148.103846,35.6849017 147.06543,34.5175781 C146.027013,33.3502546 145.507812,31.8785896 145.507812,30.1025391 C145.507812,28.2047431 146.021642,26.7259168 147.049316,25.6660156 C148.076991,24.6061145 149.511059,24.0761719 151.351562,24.0761719 C152.261072,24.0761719 153.277989,24.2014961 154.402344,24.4521484 L154.402344,26.2246094 C153.206374,25.8736962 152.232426,25.6982422 151.480469,25.6982422 C150.399083,25.6982422 149.530765,26.1046509 148.875488,26.9174805 C148.220212,27.7303101 147.892578,28.8134698 147.892578,30.1669922 C147.892578,31.4775456 148.229163,32.5374308 148.902344,33.3466797 C149.575524,34.1559285 150.456375,34.5605469 151.544922,34.5605469 C152.511724,34.5605469 153.507156,34.313479 154.53125,33.8193359 L154.53125,35.6455078 C153.163405,36.0608745 151.981776,36.2685547 150.986328,36.2685547 L150.986328,36.2685547 Z M156.700195,36 L156.700195,19.0380859 L158.816406,19.0380859 L158.816406,29.9951172 L163.757812,24.3339844 L166.035156,24.3339844 L161.319336,29.7802734 L167.012695,36 L164.305664,36 L158.816406,30.0166016 L158.816406,36 L156.700195,36 Z M168.601562,39.8779297 L168.848633,38.0410156 C170.073248,38.6210967 171.279942,38.9111328 172.46875,38.9111328 C174.853528,38.9111328 176.045898,37.6471481 176.045898,35.1191406 L176.045898,33.2822266 C175.265296,34.9150472 173.983407,35.7314453 172.200195,35.7314453 C170.803704,35.7314453 169.693689,35.2229869 168.870117,34.2060547 C168.046545,33.1891225 167.634766,31.817717 167.634766,30.0917969 C167.634766,28.3157463 168.103836,26.8691462 169.041992,25.7519531 C169.980148,24.63476 171.194003,24.0761719 172.683594,24.0761719 C173.986986,24.0761719 175.107743,24.6061145 176.045898,25.6660156 L176.045898,24.3339844 L178.172852,24.3339844 L178.172852,32.8203125 C178.172852,34.6464935 178.077963,35.9982052 177.888184,36.8754883 C177.698404,37.7527713 177.342125,38.4707003 176.819336,39.0292969 C175.895503,40.0104216 174.459645,40.5009766 172.511719,40.5009766 C171.151035,40.5009766 169.847662,40.2932963 168.601562,39.8779297 L168.601562,39.8779297 Z M176.045898,31.9609375 L176.045898,27.1162109 C175.114904,26.1494092 174.101568,25.6660156 173.005859,25.6660156 C172.031896,25.6660156 171.269208,26.0563112 170.717773,26.8369141 C170.166338,27.6175169 169.890625,28.6881442 169.890625,30.0488281 C169.890625,32.6054815 170.789379,33.8837891 172.586914,33.8837891 C173.81153,33.8837891 174.964513,33.242845 176.045898,31.9609375 L176.045898,31.9609375 Z M181.276367,36 L181.276367,24.3339844 L183.392578,24.3339844 L183.392578,26.5253906 C184.230473,24.89257 185.447909,24.0761719 187.044922,24.0761719 C187.259767,24.0761719 187.48535,24.0940753 187.72168,24.1298828 L187.72168,26.1064453 C187.356443,25.9846999 187.034181,25.9238281 186.754883,25.9238281 C185.415683,25.9238281 184.294926,26.7187421 183.392578,28.3085938 L183.392578,36 L181.276367,36 Z M193.84375,36.2685547 C192.175122,36.2685547 190.843104,35.7153376 189.847656,34.6088867 C188.852209,33.5024359 188.354492,32.0218192 188.354492,30.1669922 C188.354492,28.2906807 188.853999,26.8064833 189.853027,25.7143555 C190.852056,24.6222276 192.207348,24.0761719 193.918945,24.0761719 C195.630542,24.0761719 196.985835,24.6222276 197.984863,25.7143555 C198.983892,26.8064833 199.483398,28.2835193 199.483398,30.1455078 C199.483398,32.0504653 198.982101,33.5471951 197.979492,34.6357422 C196.976883,35.7242893 195.598316,36.2685547 193.84375,36.2685547 L193.84375,36.2685547 Z M193.875977,34.6787109 C196.117524,34.6787109 197.238281,33.1676583 197.238281,30.1455078 C197.238281,27.1591648 196.131847,25.6660156 193.918945,25.6660156 C191.713205,25.6660156 190.610352,27.1663261 190.610352,30.1669922 C190.610352,33.1748197 191.698882,34.6787109 193.875977,34.6787109 L193.875977,34.6787109 Z M209.085938,36 L209.085938,33.8085938 C207.961583,35.4485759 206.597339,36.2685547 204.993164,36.2685547 C203.976232,36.2685547 203.166995,35.9480826 202.56543,35.3071289 C201.963864,34.6661752 201.663086,33.8014377 201.663086,32.7128906 L201.663086,24.3339844 L203.779297,24.3339844 L203.779297,32.0253906 C203.779297,32.8990929 203.906411,33.5203432 204.160645,33.8891602 C204.414878,34.2579771 204.83919,34.4423828 205.433594,34.4423828 C206.722663,34.4423828 207.940098,33.5937585 209.085938,31.8964844 L209.085938,24.3339844 L211.202148,24.3339844 L211.202148,36 L209.085938,36 Z M214.445312,36 L214.445312,24.3339844 L216.561523,24.3339844 L216.561523,26.5253906 C217.678717,24.89257 219.046541,24.0761719 220.665039,24.0761719 C221.67481,24.0761719 222.480466,24.3966439 223.082031,25.0375977 C223.683597,25.6785514 223.984375,26.5397081 223.984375,27.6210938 L223.984375,36 L221.868164,36 L221.868164,28.3085938 C221.868164,27.442053 221.741049,26.8243834 221.486816,26.4555664 C221.232583,26.0867495 220.811852,25.9023438 220.224609,25.9023438 C218.928379,25.9023438 217.707362,26.7509681 216.561523,28.4482422 L216.561523,36 L214.445312,36 Z M234.585938,36 L234.585938,33.8085938 C233.726558,35.4485759 232.430347,36.2685547 230.697266,36.2685547 C229.293613,36.2685547 228.188969,35.7565155 227.383301,34.7324219 C226.577633,33.7083282 226.174805,32.3082771 226.174805,30.5322266 C226.174805,28.5914617 226.631343,27.0302793 227.544434,25.8486328 C228.457524,24.6669863 229.658847,24.0761719 231.148438,24.0761719 C232.530606,24.0761719 233.676428,24.6061145 234.585938,25.6660156 L234.585938,19.0380859 L236.712891,19.0380859 L236.712891,36 L234.585938,36 Z M234.585938,27.1162109 C233.490229,26.1494092 232.451828,25.6660156 231.470703,25.6660156 C229.444,25.6660156 228.430664,27.2164558 228.430664,30.3173828 C228.430664,33.0459121 229.332999,34.4101562 231.137695,34.4101562 C232.31218,34.4101562 233.461583,33.7692121 234.585938,32.4873047 L234.585938,27.1162109 Z M250.47168,36.2685547 C248.803052,36.2685547 247.471034,35.7153376 246.475586,34.6088867 C245.480138,33.5024359 244.982422,32.0218192 244.982422,30.1669922 C244.982422,28.2906807 245.481929,26.8064833 246.480957,25.7143555 C247.479985,24.6222276 248.835278,24.0761719 250.546875,24.0761719 C252.258472,24.0761719 253.613765,24.6222276 254.612793,25.7143555 C255.611821,26.8064833 256.111328,28.2835193 256.111328,30.1455078 C256.111328,32.0504653 255.610031,33.5471951 254.607422,34.6357422 C253.604813,35.7242893 252.226246,36.2685547 250.47168,36.2685547 L250.47168,36.2685547 Z M250.503906,34.6787109 C252.745454,34.6787109 253.866211,33.1676583 253.866211,30.1455078 C253.866211,27.1591648 252.759777,25.6660156 250.546875,25.6660156 C248.341135,25.6660156 247.238281,27.1663261 247.238281,30.1669922 C247.238281,33.1748197 248.326812,34.6787109 250.503906,34.6787109 L250.503906,34.6787109 Z M260.944336,25.9238281 L260.944336,36 L258.817383,36 L258.817383,25.9238281 L257.163086,25.9238281 L257.163086,24.3339844 L258.817383,24.3339844 L258.817383,22.9375 C258.817383,20.1588403 260.084948,18.7695312 262.620117,18.7695312 C263.329105,18.7695312 264.134761,18.8876941 265.037109,19.1240234 L265.037109,20.7998047 C264.084631,20.5061834 263.321943,20.359375 262.749023,20.359375 C262.054359,20.359375 261.579917,20.5258772 261.325684,20.8588867 C261.071451,21.1918962 260.944336,21.8095658 260.944336,22.7119141 L260.944336,24.3339844 L263.855469,24.3339844 L263.855469,25.9238281 L260.944336,25.9238281 Z M274.97168,36.2685547 C273.897456,36.2685547 273.059573,35.9606151 272.458008,35.3447266 C271.856442,34.7288381 271.555664,33.8730524 271.555664,32.7773438 L271.555664,25.9238281 L270.094727,25.9238281 L270.094727,24.3339844 L271.555664,24.3339844 L271.555664,22.2177734 L273.671875,22.0136719 L273.671875,24.3339844 L276.722656,24.3339844 L276.722656,25.9238281 L273.671875,25.9238281 L273.671875,32.390625 C273.671875,33.9160233 274.330723,34.6787109 275.648438,34.6787109 C275.927736,34.6787109 276.267902,34.6321619 276.668945,34.5390625 L276.668945,36 C276.017249,36.1790374 275.4515,36.2685547 274.97168,36.2685547 L274.97168,36.2685547 Z M278.698242,36 L278.698242,19.0380859 L280.814453,19.0380859 L280.814453,26.5253906 C281.931646,24.89257 283.299471,24.0761719 284.917969,24.0761719 C285.927739,24.0761719 286.733395,24.3966439 287.334961,25.0375977 C287.936526,25.6785514 288.237305,26.5397081 288.237305,27.6210938 L288.237305,36 L286.121094,36 L286.121094,28.3085938 C286.121094,27.442053 285.993979,26.8243834 285.739746,26.4555664 C285.485513,26.0867495 285.064782,25.9023438 284.477539,25.9023438 C283.181309,25.9023438 281.960292,26.7509681 280.814453,28.4482422 L280.814453,36 L278.698242,36 Z M291.351562,36 L291.351562,24.3339844 L293.467773,24.3339844 L293.467773,36 L291.351562,36 Z M291.351562,22.2177734 L291.351562,20.1015625 L293.467773,20.1015625 L293.467773,22.2177734 L291.351562,22.2177734 Z M299.804688,36.2685547 C298.837886,36.2685547 297.663418,36.042971 296.28125,35.5917969 L296.28125,33.6474609 C297.663418,34.3349644 298.866531,34.6787109 299.890625,34.6787109 C300.499352,34.6787109 301.00423,34.513999 301.405273,34.1845703 C301.806317,33.8551416 302.006836,33.4433618 302.006836,32.9492188 C302.006836,32.2259078 301.444667,31.6279321 300.320312,31.1552734 L299.084961,30.6289062 C297.25878,29.8697879 296.345703,28.7776764 296.345703,27.3525391 C296.345703,26.3356069 296.705563,25.5353219 297.425293,24.9516602 C298.145023,24.3679984 299.131504,24.0761719 300.384766,24.0761719 C301.036462,24.0761719 301.842118,24.1656892 302.801758,24.3447266 L303.242188,24.4306641 L303.242188,26.1923828 C302.060541,25.8414696 301.122399,25.6660156 300.427734,25.6660156 C299.06705,25.6660156 298.386719,26.1601513 298.386719,27.1484375 C298.386719,27.7858105 298.902339,28.3229145 299.933594,28.7597656 L300.954102,29.1894531 C302.107102,29.6764347 302.9235,30.1902642 303.40332,30.730957 C303.88314,31.2716498 304.123047,31.9466105 304.123047,32.7558594 C304.123047,33.779953 303.718429,34.621416 302.90918,35.2802734 C302.099931,35.9391309 301.06511,36.2685547 299.804688,36.2685547 L299.804688,36.2685547 Z M19.1162109,66 L19.1162109,54.3339844 L21.2324219,54.3339844 L21.2324219,66 L19.1162109,66 Z M19.1162109,52.2177734 L19.1162109,50.1015625 L21.2324219,50.1015625 L21.2324219,52.2177734 L19.1162109,52.2177734 Z M24.4755859,66 L24.4755859,54.3339844 L26.5917969,54.3339844 L26.5917969,56.5253906 C27.70899,54.89257 29.0768148,54.0761719 30.6953125,54.0761719 C31.7050832,54.0761719 32.5107392,54.3966439 33.1123047,55.0375977 C33.7138702,55.6785514 34.0146484,56.5397081 34.0146484,57.6210938 L34.0146484,66 L31.8984375,66 L31.8984375,58.3085938 C31.8984375,57.442053 31.7713229,56.8243834 31.5170898,56.4555664 C31.2628568,56.0867495 30.8421253,55.9023438 30.2548828,55.9023438 C28.9586524,55.9023438 27.7376359,56.7509681 26.5917969,58.4482422 L26.5917969,66 L24.4755859,66 Z M39.5458984,66 L35.2060547,54.3339844 L37.3222656,54.3339844 L40.7167969,63.4111328 L44.2939453,54.3339844 L46.2705078,54.3339844 L41.6621094,66 L39.5458984,66 Z M56.0664062,65.6240234 C54.6484304,66.0537131 53.4345754,66.2685547 52.4248047,66.2685547 C50.7060461,66.2685547 49.3042046,65.6974341 48.2192383,64.5551758 C47.1342719,63.4129175 46.5917969,61.9323008 46.5917969,60.1132812 C46.5917969,58.3443922 47.0698194,56.8942114 48.0258789,55.7626953 C48.9819384,54.6311792 50.2047452,54.0654297 51.6943359,54.0654297 C53.1051503,54.0654297 54.1954714,54.5667268 54.965332,55.5693359 C55.7351927,56.5719451 56.1201172,57.9970611 56.1201172,59.8447266 L56.109375,60.5 L48.7509766,60.5 C49.0589208,63.2714982 50.4160036,64.6572266 52.8222656,64.6572266 C53.7031294,64.6572266 54.7844988,64.4209008 56.0664062,63.9482422 L56.0664062,65.6240234 Z M48.8476562,58.9101562 L53.9931641,58.9101562 C53.9931641,56.7402235 53.1839274,55.6552734 51.5654297,55.6552734 C49.9397705,55.6552734 49.0338551,56.7402235 48.8476562,58.9101562 L48.8476562,58.9101562 Z M61.8662109,66.2685547 C60.8994092,66.2685547 59.7249418,66.042971 58.3427734,65.5917969 L58.3427734,63.6474609 C59.7249418,64.3349644 60.9280548,64.6787109 61.9521484,64.6787109 C62.5608754,64.6787109 63.0657532,64.513999 63.4667969,64.1845703 C63.8678405,63.8551416 64.0683594,63.4433618 64.0683594,62.9492188 C64.0683594,62.2259078 63.5061905,61.6279321 62.3818359,61.1552734 L61.1464844,60.6289062 C59.3203034,59.8697879 58.4072266,58.7776764 58.4072266,57.3525391 C58.4072266,56.3356069 58.7670862,55.5353219 59.4868164,54.9516602 C60.2065466,54.3679984 61.1930276,54.0761719 62.4462891,54.0761719 C63.097985,54.0761719 63.903641,54.1656892 64.8632812,54.3447266 L65.3037109,54.4306641 L65.3037109,56.1923828 C64.1220644,55.8414696 63.1839227,55.6660156 62.4892578,55.6660156 C61.1285739,55.6660156 60.4482422,56.1601513 60.4482422,57.1484375 C60.4482422,57.7858105 60.963862,58.3229145 61.9951172,58.7597656 L63.015625,59.1894531 C64.1686256,59.6764347 64.9850236,60.1902642 65.4648438,60.730957 C65.9446639,61.2716498 66.1845703,61.9466105 66.1845703,62.7558594 C66.1845703,63.779953 65.779952,64.621416 64.9707031,65.2802734 C64.1614543,65.9391309 63.1266339,66.2685547 61.8662109,66.2685547 L61.8662109,66.2685547 Z M72.4892578,66.2685547 C71.4150337,66.2685547 70.5771514,65.9606151 69.9755859,65.3447266 C69.3740204,64.7288381 69.0732422,63.8730524 69.0732422,62.7773438 L69.0732422,55.9238281 L67.6123047,55.9238281 L67.6123047,54.3339844 L69.0732422,54.3339844 L69.0732422,52.2177734 L71.1894531,52.0136719 L71.1894531,54.3339844 L74.2402344,54.3339844 L74.2402344,55.9238281 L71.1894531,55.9238281 L71.1894531,62.390625 C71.1894531,63.9160233 71.8483007,64.6787109 73.1660156,64.6787109 C73.4453139,64.6787109 73.7854798,64.6321619 74.1865234,64.5390625 L74.1865234,66 C73.5348275,66.1790374 72.9690779,66.2685547 72.4892578,66.2685547 L72.4892578,66.2685547 Z M76.2158203,66 L76.2158203,54.3339844 L78.3320312,54.3339844 L78.3320312,56.5253906 C79.3632864,54.89257 80.6881429,54.0761719 82.3066406,54.0761719 C83.8678463,54.0761719 84.9313123,54.89257 85.4970703,56.5253906 C86.4996795,54.8854085 87.8030519,54.0654297 89.4072266,54.0654297 C90.4384817,54.0654297 91.2369763,54.3679983 91.8027344,54.9731445 C92.3684924,55.5782908 92.6513672,56.4251248 92.6513672,57.5136719 L92.6513672,66 L90.5244141,66 L90.5244141,57.8466797 C90.5244141,56.5146418 89.9980521,55.8486328 88.9453125,55.8486328 C87.8496039,55.8486328 86.7002013,56.6256433 85.4970703,58.1796875 L85.4970703,66 L83.3701172,66 L83.3701172,57.8466797 C83.3701172,56.5074803 82.8330132,55.8378906 81.7587891,55.8378906 C80.6917264,55.8378906 79.5494853,56.6184818 78.3320312,58.1796875 L78.3320312,66 L76.2158203,66 Z M104.305664,65.6240234 C102.887688,66.0537131 101.673833,66.2685547 100.664062,66.2685547 C98.9453039,66.2685547 97.5434625,65.6974341 96.4584961,64.5551758 C95.3735297,63.4129175 94.8310547,61.9323008 94.8310547,60.1132812 C94.8310547,58.3443922 95.3090773,56.8942114 96.2651367,55.7626953 C97.2211962,54.6311792 98.444003,54.0654297 99.9335938,54.0654297 C101.344408,54.0654297 102.434729,54.5667268 103.20459,55.5693359 C103.97445,56.5719451 104.359375,57.9970611 104.359375,59.8447266 L104.348633,60.5 L96.9902344,60.5 C97.2981786,63.2714982 98.6552614,64.6572266 101.061523,64.6572266 C101.942387,64.6572266 103.023757,64.4209008 104.305664,63.9482422 L104.305664,65.6240234 Z M97.0869141,58.9101562 L102.232422,58.9101562 C102.232422,56.7402235 101.423185,55.6552734 99.8046875,55.6552734 C98.1790283,55.6552734 97.2731129,56.7402235 97.0869141,58.9101562 L97.0869141,58.9101562 Z M107.011719,66 L107.011719,54.3339844 L109.12793,54.3339844 L109.12793,56.5253906 C110.245123,54.89257 111.612948,54.0761719 113.231445,54.0761719 C114.241216,54.0761719 115.046872,54.3966439 115.648438,55.0375977 C116.250003,55.6785514 116.550781,56.5397081 116.550781,57.6210938 L116.550781,66 L114.43457,66 L114.43457,58.3085938 C114.43457,57.442053 114.307456,56.8243834 114.053223,56.4555664 C113.79899,56.0867495 113.378258,55.9023438 112.791016,55.9023438 C111.494785,55.9023438 110.273769,56.7509681 109.12793,58.4482422 L109.12793,66 L107.011719,66 Z M123.166992,66.2685547 C122.092768,66.2685547 121.254886,65.9606151 120.65332,65.3447266 C120.051755,64.7288381 119.750977,63.8730524 119.750977,62.7773438 L119.750977,55.9238281 L118.290039,55.9238281 L118.290039,54.3339844 L119.750977,54.3339844 L119.750977,52.2177734 L121.867188,52.0136719 L121.867188,54.3339844 L124.917969,54.3339844 L124.917969,55.9238281 L121.867188,55.9238281 L121.867188,62.390625 C121.867188,63.9160233 122.526035,64.6787109 123.84375,64.6787109 C124.123048,64.6787109 124.463214,64.6321619 124.864258,64.5390625 L124.864258,66 C124.212562,66.1790374 123.646812,66.2685547 123.166992,66.2685547 L123.166992,66.2685547 Z M132.854492,70.2431641 L132.854492,54.3339844 L134.970703,54.3339844 L134.970703,56.5253906 C135.837244,54.89257 137.137036,54.0761719 138.870117,54.0761719 C140.27377,54.0761719 141.378414,54.588211 142.184082,55.6123047 C142.98975,56.6363983 143.392578,58.0364495 143.392578,59.8125 C143.392578,61.7461034 142.93604,63.3054954 142.022949,64.4907227 C141.109859,65.6759499 139.908536,66.2685547 138.418945,66.2685547 C137.036777,66.2685547 135.887374,65.7386121 134.970703,64.6787109 L134.970703,70.2431641 L132.854492,70.2431641 Z M134.970703,63.2177734 C136.05925,64.1917366 137.097651,64.6787109 138.085938,64.6787109 C140.119802,64.6787109 141.136719,63.1282707 141.136719,60.0273438 C141.136719,57.291653 140.234384,55.9238281 138.429688,55.9238281 C137.248041,55.9238281 136.095058,56.5647722 134.970703,57.8466797 L134.970703,63.2177734 Z M145.701172,66 L145.701172,54.3339844 L147.817383,54.3339844 L147.817383,56.5253906 C148.655278,54.89257 149.872713,54.0761719 151.469727,54.0761719 C151.684571,54.0761719 151.910155,54.0940753 152.146484,54.1298828 L152.146484,56.1064453 C151.781248,55.9846999 151.458986,55.9238281 151.179688,55.9238281 C149.840488,55.9238281 148.719731,56.7187421 147.817383,58.3085938 L147.817383,66 L145.701172,66 Z M158.268555,66.2685547 C156.599927,66.2685547 155.267909,65.7153376 154.272461,64.6088867 C153.277013,63.5024359 152.779297,62.0218192 152.779297,60.1669922 C152.779297,58.2906807 153.278804,56.8064833 154.277832,55.7143555 C155.27686,54.6222276 156.632153,54.0761719 158.34375,54.0761719 C160.055347,54.0761719 161.41064,54.6222276 162.409668,55.7143555 C163.408696,56.8064833 163.908203,58.2835193 163.908203,60.1455078 C163.908203,62.0504653 163.406906,63.5471951 162.404297,64.6357422 C161.401688,65.7242893 160.023121,66.2685547 158.268555,66.2685547 L158.268555,66.2685547 Z M158.300781,64.6787109 C160.542329,64.6787109 161.663086,63.1676583 161.663086,60.1455078 C161.663086,57.1591648 160.556652,55.6660156 158.34375,55.6660156 C156.13801,55.6660156 155.035156,57.1663261 155.035156,60.1669922 C155.035156,63.1748197 156.123687,64.6787109 158.300781,64.6787109 L158.300781,64.6787109 Z M168.741211,55.9238281 L168.741211,66 L166.614258,66 L166.614258,55.9238281 L164.959961,55.9238281 L164.959961,54.3339844 L166.614258,54.3339844 L166.614258,52.9375 C166.614258,50.1588403 167.881823,48.7695312 170.416992,48.7695312 C171.12598,48.7695312 171.931636,48.8876941 172.833984,49.1240234 L172.833984,50.7998047 C171.881506,50.5061834 171.118818,50.359375 170.545898,50.359375 C169.851234,50.359375 169.376792,50.5258772 169.122559,50.8588867 C168.868326,51.1918962 168.741211,51.8095658 168.741211,52.7119141 L168.741211,54.3339844 L171.652344,54.3339844 L171.652344,55.9238281 L168.741211,55.9238281 Z M181.856445,65.6240234 C180.438469,66.0537131 179.224614,66.2685547 178.214844,66.2685547 C176.496085,66.2685547 175.094244,65.6974341 174.009277,64.5551758 C172.924311,63.4129175 172.381836,61.9323008 172.381836,60.1132812 C172.381836,58.3443922 172.859859,56.8942114 173.815918,55.7626953 C174.771977,54.6311792 175.994784,54.0654297 177.484375,54.0654297 C178.895189,54.0654297 179.98551,54.5667268 180.755371,55.5693359 C181.525232,56.5719451 181.910156,57.9970611 181.910156,59.8447266 L181.899414,60.5 L174.541016,60.5 C174.84896,63.2714982 176.206043,64.6572266 178.612305,64.6572266 C179.493168,64.6572266 180.574538,64.4209008 181.856445,63.9482422 L181.856445,65.6240234 Z M174.637695,58.9101562 L179.783203,58.9101562 C179.783203,56.7402235 178.973966,55.6552734 177.355469,55.6552734 C175.72981,55.6552734 174.823894,56.7402235 174.637695,58.9101562 L174.637695,58.9101562 Z M187.65625,66.2685547 C186.689448,66.2685547 185.514981,66.042971 184.132812,65.5917969 L184.132812,63.6474609 C185.514981,64.3349644 186.718094,64.6787109 187.742188,64.6787109 C188.350915,64.6787109 188.855792,64.513999 189.256836,64.1845703 C189.65788,63.8551416 189.858398,63.4433618 189.858398,62.9492188 C189.858398,62.2259078 189.29623,61.6279321 188.171875,61.1552734 L186.936523,60.6289062 C185.110342,59.8697879 184.197266,58.7776764 184.197266,57.3525391 C184.197266,56.3356069 184.557125,55.5353219 185.276855,54.9516602 C185.996586,54.3679984 186.983067,54.0761719 188.236328,54.0761719 C188.888024,54.0761719 189.69368,54.1656892 190.65332,54.3447266 L191.09375,54.4306641 L191.09375,56.1923828 C189.912103,55.8414696 188.973962,55.6660156 188.279297,55.6660156 C186.918613,55.6660156 186.238281,56.1601513 186.238281,57.1484375 C186.238281,57.7858105 186.753901,58.3229145 187.785156,58.7597656 L188.805664,59.1894531 C189.958665,59.6764347 190.775063,60.1902642 191.254883,60.730957 C191.734703,61.2716498 191.974609,61.9466105 191.974609,62.7558594 C191.974609,63.779953 191.569991,64.621416 190.760742,65.2802734 C189.951493,65.9391309 188.916673,66.2685547 187.65625,66.2685547 L187.65625,66.2685547 Z M197.871094,66.2685547 C196.904292,66.2685547 195.729825,66.042971 194.347656,65.5917969 L194.347656,63.6474609 C195.729825,64.3349644 196.932938,64.6787109 197.957031,64.6787109 C198.565758,64.6787109 199.070636,64.513999 199.47168,64.1845703 C199.872723,63.8551416 200.073242,63.4433618 200.073242,62.9492188 C200.073242,62.2259078 199.511073,61.6279321 198.386719,61.1552734 L197.151367,60.6289062 C195.325186,59.8697879 194.412109,58.7776764 194.412109,57.3525391 C194.412109,56.3356069 194.771969,55.5353219 195.491699,54.9516602 C196.211429,54.3679984 197.19791,54.0761719 198.451172,54.0761719 C199.102868,54.0761719 199.908524,54.1656892 200.868164,54.3447266 L201.308594,54.4306641 L201.308594,56.1923828 C200.126947,55.8414696 199.188806,55.6660156 198.494141,55.6660156 C197.133457,55.6660156 196.453125,56.1601513 196.453125,57.1484375 C196.453125,57.7858105 196.968745,58.3229145 198,58.7597656 L199.020508,59.1894531 C200.173508,59.6764347 200.989906,60.1902642 201.469727,60.730957 C201.949547,61.2716498 202.189453,61.9466105 202.189453,62.7558594 C202.189453,63.779953 201.784835,64.621416 200.975586,65.2802734 C200.166337,65.9391309 199.131517,66.2685547 197.871094,66.2685547 L197.871094,66.2685547 Z M204.992188,66 L204.992188,54.3339844 L207.108398,54.3339844 L207.108398,66 L204.992188,66 Z M204.992188,52.2177734 L204.992188,50.1015625 L207.108398,50.1015625 L207.108398,52.2177734 L204.992188,52.2177734 Z M214.916992,66.2685547 C213.248364,66.2685547 211.916346,65.7153376 210.920898,64.6088867 C209.925451,63.5024359 209.427734,62.0218192 209.427734,60.1669922 C209.427734,58.2906807 209.927241,56.8064833 210.92627,55.7143555 C211.925298,54.6222276 213.28059,54.0761719 214.992188,54.0761719 C216.703785,54.0761719 218.059077,54.6222276 219.058105,55.7143555 C220.057134,56.8064833 220.556641,58.2835193 220.556641,60.1455078 C220.556641,62.0504653 220.055344,63.5471951 219.052734,64.6357422 C218.050125,65.7242893 216.671558,66.2685547 214.916992,66.2685547 L214.916992,66.2685547 Z M214.949219,64.6787109 C217.190766,64.6787109 218.311523,63.1676583 218.311523,60.1455078 C218.311523,57.1591648 217.205089,55.6660156 214.992188,55.6660156 C212.786447,55.6660156 211.683594,57.1663261 211.683594,60.1669922 C211.683594,63.1748197 212.772125,64.6787109 214.949219,64.6787109 L214.949219,64.6787109 Z M222.865234,66 L222.865234,54.3339844 L224.981445,54.3339844 L224.981445,56.5253906 C226.098638,54.89257 227.466463,54.0761719 229.084961,54.0761719 C230.094732,54.0761719 230.900388,54.3966439 231.501953,55.0375977 C232.103519,55.6785514 232.404297,56.5397081 232.404297,57.6210938 L232.404297,66 L230.288086,66 L230.288086,58.3085938 C230.288086,57.442053 230.160971,56.8243834 229.906738,56.4555664 C229.652505,56.0867495 229.231774,55.9023438 228.644531,55.9023438 C227.348301,55.9023438 226.127284,56.7509681 224.981445,58.4482422 L224.981445,66 L222.865234,66 Z M241.53418,64.5175781 C240.266595,65.6849017 239.045579,66.2685547 237.871094,66.2685547 C236.904292,66.2685547 236.102217,65.9659861 235.464844,65.3608398 C234.827471,64.7556936 234.508789,63.9912156 234.508789,63.0673828 C234.508789,61.7926369 235.044103,60.8133172 236.114746,60.1293945 C237.185389,59.4454718 238.719717,59.1035156 240.717773,59.1035156 L241.222656,59.1035156 L241.222656,57.6962891 C241.222656,56.3427667 240.528002,55.6660156 239.138672,55.6660156 C238.021479,55.6660156 236.814785,56.0097622 235.518555,56.6972656 L235.518555,54.9462891 C236.943692,54.366208 238.279291,54.0761719 239.525391,54.0761719 C240.828783,54.0761719 241.790199,54.3697887 242.409668,54.9570312 C243.029137,55.5442738 243.338867,56.4573506 243.338867,57.6962891 L243.338867,62.9814453 C243.338867,64.1917378 243.711259,64.796875 244.456055,64.796875 C244.549154,64.796875 244.68522,64.7825522 244.864258,64.7539062 L245.014648,65.9248047 C244.534828,66.1539725 244.004886,66.2685547 243.424805,66.2685547 C242.436518,66.2685547 241.806316,65.6849017 241.53418,64.5175781 L241.53418,64.5175781 Z M241.222656,63.3681641 L241.222656,60.3496094 L240.513672,60.328125 C239.35351,60.328125 238.415368,60.5483376 237.699219,60.9887695 C236.983069,61.4292014 236.625,62.0074834 236.625,62.7236328 C236.625,63.2320989 236.804035,63.6617821 237.162109,64.0126953 C237.520184,64.3636085 237.957029,64.5390625 238.472656,64.5390625 C239.35352,64.5390625 240.270178,64.1487669 241.222656,63.3681641 L241.222656,63.3681641 Z M246.667969,66 L246.667969,49.0380859 L248.78418,49.0380859 L248.78418,66 L246.667969,66 Z" id="Check-the-background" fill="#FFFFFF" sketch:type="MSShapeGroup"></path>
            <path d="M273.096533,55.5495156 L274.059182,54.5868666 C274.449386,54.1966624 275.077924,54.1925539 275.475642,54.5902718 L281.321861,60.4364909 C281.713946,60.8285758 281.715686,61.4625307 281.325266,61.8529507 L276.363924,66.8142931 C275.973719,67.2044973 275.345182,67.2086058 274.947464,66.8108879 L273.98822,65.8516441 L278.693441,61.1464234 L273.096533,55.5495156 Z" id="Rectangle-3-Copy" fill="#FFFFFF" sketch:type="MSShapeGroup"></path>
            <path d="M283.63891,55.5495156 L284.601559,54.5868666 C284.991763,54.1966624 285.6203,54.1925539 286.018018,54.5902718 L291.864237,60.4364909 C292.256322,60.8285758 292.258063,61.4625307 291.867643,61.8529507 L286.9063,66.8142931 C286.516096,67.2044973 285.887558,67.2086058 285.48984,66.8108879 L284.530597,65.8516441 L289.235817,61.1464234 L283.63891,55.5495156 Z" id="Rectangle-3-Copy-3" fill="#FFFFFF" sketch:type="MSShapeGroup"></path>
            <path d="M262.554156,55.5495156 L263.516805,54.5868666 C263.90701,54.1966624 264.535547,54.1925539 264.933265,54.5902718 L270.779484,60.4364909 C271.171569,60.8285758 271.173309,61.4625307 270.78289,61.8529507 L265.821547,66.8142931 C265.431343,67.2044973 264.802805,67.2086058 264.405087,66.8108879 L263.445844,65.8516441 L268.151064,61.1464234 L262.554156,55.5495156 Z" id="Rectangle-3-Copy-2" fill="#FFFFFF" sketch:type="MSShapeGroup"></path>
            <path d="M41.8869426,123.633538 L34.1982994,123.633538 L34.1982994,130.446014 L41.8869426,130.446014 C43.7906092,130.446014 45.3278097,128.924132 45.3278097,127.039563 C45.3278097,125.191826 43.7906092,123.633538 41.8869426,123.633538 L41.8869426,123.633538 Z M34.1982994,118.706098 L41.3374789,118.706098 C42.8751093,118.706098 44.0835077,117.473686 44.0835077,115.951824 C44.0835077,114.393982 42.8751093,113.125609 41.3374789,113.125609 L34.1982994,113.125609 L34.1982994,118.706098 Z M29,110.371761 C29,109.176201 30.1716147,108.197723 31.5993646,108.197723 L41.3374789,108.197723 C45.8405101,108.197723 49.5020388,111.277447 49.5020388,115.589988 C49.5020388,118.379797 47.7078228,119.938064 46.279643,120.844175 C48.4398747,121.821782 50.7463203,123.923879 50.7463203,127.365864 C50.7463203,131.967449 46.7923229,135.373879 41.9600598,135.373879 L31.5993646,135.373879 C30.1716147,135.373879 29,134.395421 29,133.199841 L29,110.371761 Z M79.5282148,118.793713 C76.1508663,118.793713 73.3902745,121.571576 73.3902745,124.928125 C73.3902745,128.319639 76.1508663,131.098793 79.5282148,131.098793 C82.9785231,131.098793 85.6661552,128.319639 85.6661552,124.928125 C85.6661552,121.571576 82.9785231,118.793713 79.5282148,118.793713 Z M79.5282148,136.005883 C73.1726745,136.005883 68.015457,131.279186 68.015457,124.928125 C68.015457,118.61332 73.1726745,113.885756 79.5282148,113.885756 C85.9202249,113.885756 91.0409726,118.61332 91.0409726,124.928125 C91.0409726,131.279186 85.9202249,136.005883 79.5282148,136.005883 Z M132.789291,122.835126 C131.907865,120.308859 129.631183,118.68496 126.950459,118.68496 C124.30618,118.68496 122.029497,120.308859 121.148071,122.835126 L132.789291,122.835126 Z M135.763818,127.273565 L121.148071,127.273565 C122.029497,129.799408 124.490194,131.422863 127.134021,131.422863 C129.006661,131.422863 131.246898,130.737568 132.531935,129.583203 C133.266676,128.78916 134.625487,128.78916 135.579804,129.654828 C136.535004,130.448871 136.755032,131.819885 136.057188,132.613928 C133.817403,134.77943 130.438815,136.005883 127.134021,136.005883 C120.744029,136.005883 115.345684,131.242491 115.345684,124.928115 C115.345684,118.613336 120.560447,113.885756 126.950459,113.885756 C133.229779,113.885756 138.371199,118.757473 138.371199,124.928115 C138.371199,126.118756 137.195971,127.273565 135.763818,127.273565 Z M166.646645,125.893825 C166.458001,125.893825 166.27278,125.810011 166.146581,125.653693 C164.321214,123.394282 163.315508,120.535828 163.315508,117.604481 C163.315508,111.282017 167.949998,105.882542 174.095796,105.044265 C174.398658,105.000174 174.688431,105.182232 174.790928,105.473456 C174.893023,105.765538 174.780256,106.090361 174.519682,106.251905 C169.590526,109.311197 166.647934,114.642556 166.647934,120.514885 C166.647934,122.04649 166.856836,123.576341 167.268599,125.0621 C167.351302,125.360305 167.216061,125.676841 166.944694,125.819605 C166.850372,125.86982 166.747874,125.893825 166.646645,125.893825 Z M232.686962,154.078711 C233.358273,154.078711 233.893911,153.57641 233.893911,152.963051 C233.893911,152.35635 233.358273,151.854048 232.686962,151.854048 C232.008815,151.854048 231.487278,152.35635 231.487278,152.963051 C231.487278,153.57641 232.008815,154.078711 232.686962,154.078711 Z M231.444333,154.51589 C231.444333,154.737593 231.237299,154.907116 230.959118,154.907116 C230.680295,154.907116 230.473262,154.737593 230.473262,154.51589 L230.473262,150.301209 C230.473262,150.085752 230.701661,149.909963 230.980484,149.909963 C231.258879,149.909963 231.487278,150.085752 231.487278,150.301209 L231.487278,151.625649 L231.501379,151.625649 C231.787039,151.273251 232.222686,150.966767 232.872417,150.966767 C234.022319,150.966767 234.950445,151.821486 234.950445,152.963051 C234.950445,154.111292 234.022319,154.965992 232.872417,154.965992 C232.158589,154.965992 231.665895,154.574337 231.458434,154.228615 L231.444333,154.235292 L231.444333,154.51589 Z M235.958701,155.624719 L236.351512,154.760637 L234.982554,151.779578 C234.89082,151.581591 235.002352,151.33085 235.231688,151.225324 C235.461023,151.113029 235.722897,151.192405 235.814435,151.390373 L236.869184,153.626374 L237.923736,151.390373 C238.01547,151.192405 238.27754,151.113029 238.506876,151.225324 C238.736212,151.33085 238.847743,151.581591 238.755813,151.779578 L236.790386,156.013925 C236.699044,156.211892 236.436974,156.290834 236.207638,156.178559 C235.978303,156.073013 235.866771,155.822707 235.958701,155.624719 Z M66.0783548,114.10561 C67.1749685,114.36226 68.015457,115.31441 68.015457,116.523209 C68.015457,117.914207 66.9188433,119.013069 65.5302625,119.013069 C65.3108581,119.013069 64.9454496,118.939928 64.0682404,118.866787 C61.2543581,118.720053 59.1341225,121.320301 59.1341225,124.359807 L59.1341225,133.808138 C59.1341225,135.016938 57.9649462,136.005883 56.5396447,136.005883 C55.1139141,136.005883 53.9443086,135.016938 53.9443086,133.808138 L53.9443086,116.266559 C53.9443086,115.131331 55.0409223,114.215548 56.3569404,114.215548 C57.6725499,114.215548 58.7687345,115.131331 58.7687345,116.266559 L58.7687345,117.438133 L58.8417262,117.438133 C59.9383399,115.57061 61.4733334,113.885756 64.3239364,113.885756 C64.8720287,113.885756 65.4568416,113.959327 66.0783548,114.10561 Z M112.960208,132.109237 C113.726579,132.944113 113.544163,134.359176 112.449157,135.338582 C111.427464,136.173033 110.004681,136.281937 109.23786,135.338582 L101.646988,127.065609 C101.172584,126.521454 100.917263,125.940862 100.917263,125.178859 C100.917263,124.416876 101.172584,123.83671 101.646988,123.292129 L109.164976,115.055187 C109.931368,114.111812 111.35458,114.220716 112.376272,115.055187 C113.471278,116.034999 113.653694,117.450487 112.887323,118.284958 L106.719642,125.178859 L112.960208,132.109237 Z M94.2389609,110.374769 C94.2389609,109.177109 95.4068517,108.197723 96.8300637,108.197723 C98.2532757,108.197723 99.4211665,109.177109 99.4211665,110.374769 L99.4211665,133.814595 C99.4211665,135.011829 98.2532757,135.991641 96.8300637,135.991641 C95.4068517,135.991641 94.2389609,135.011829 94.2389609,133.814595 L94.2389609,110.374769 Z M208.835391,123.491861 C208.835391,120.878831 206.791604,118.781176 204.19059,118.781176 C201.552178,118.781176 199.50839,120.878831 199.50839,123.491861 L199.50839,133.796979 C199.50839,135.011298 198.31935,136.005092 196.870186,136.005092 C195.421023,136.005092 194.231775,135.011298 194.231775,133.796979 L194.231775,110.022204 C194.231775,108.807906 195.421023,107.814091 196.870186,107.814091 C198.31935,107.814091 199.50839,108.807906 199.50839,110.022204 L199.50839,117.272418 C199.545788,117.272418 199.582563,117.309395 199.61996,117.272418 C200.623467,115.579248 202.815599,113.776505 205.788513,113.776505 C210.804799,113.776505 214.112007,117.419421 214.112007,122.829462 L214.112007,133.796979 C214.112007,135.011298 212.922758,136.005092 211.473595,136.005092 C210.024432,136.005092 208.835391,135.011298 208.835391,133.796979 L208.835391,123.491861 Z M234.167282,122.652313 C233.283472,120.091665 231.000761,118.445806 228.312892,118.445806 C225.661669,118.445806 223.378958,120.091665 222.495148,122.652313 L234.167282,122.652313 Z M237.149753,127.151947 L222.495148,127.151947 C223.378958,129.713045 225.845719,131.358904 228.496942,131.358904 C230.374497,131.358904 232.620769,130.663711 233.909736,129.49343 C234.645935,128.688868 236.008397,128.688868 236.965703,129.566921 C237.923009,130.371483 238.14391,131.7614 237.444356,132.566391 C235.198084,134.761299 231.810456,136.005092 228.496942,136.005092 C222.089992,136.005092 216.677198,131.176024 216.677198,124.774609 C216.677198,118.372315 221.905942,113.580432 228.312892,113.580432 C234.608878,113.580432 239.763919,118.518868 239.763919,124.774609 C239.763919,125.981217 238.585712,127.151947 237.149753,127.151947 Z M261.362581,129.822537 C262.358731,130.810389 262.543111,132.310523 261.473333,133.224435 C259.444529,134.980506 256.862583,136.005092 254.022216,136.005092 C247.529919,136.005092 242.32911,131.176121 242.32911,124.774385 C242.32911,118.372219 247.529919,113.580432 254.022216,113.580432 C256.862583,113.580432 259.48124,114.531529 261.473333,116.323905 C262.543111,117.275001 262.395236,118.66489 261.362581,119.725802 C260.403555,120.713654 258.890975,120.860204 258.043114,120.018924 C256.972923,119.104133 255.534384,118.555095 254.022216,118.555095 C250.554873,118.555095 247.788547,121.372508 247.788547,124.774385 C247.788547,128.176282 250.554873,131.03 254.022216,131.03 C255.534384,131.03 256.972923,130.444636 258.043114,129.529866 C258.890975,128.688585 260.403555,128.834686 261.362581,129.822537 Z M242.970408,146.376252 C242.970408,145.957732 243.387787,145.615661 243.896331,145.615661 L249.242439,145.615661 C249.672842,145.615661 250.024684,145.995742 250.024684,146.477599 C250.024684,146.959456 249.672842,147.339966 249.242439,147.339966 L244.822043,147.339966 L244.822043,149.495455 L248.355587,149.495455 C248.78599,149.495455 249.138252,149.875537 249.138252,150.357394 C249.138252,150.839251 248.78599,151.219761 248.355587,151.219761 L244.822043,151.219761 L244.822043,154.465658 C244.822043,154.883729 244.404453,155.226229 243.896331,155.226229 C243.387787,155.226229 242.970408,154.883729 242.970408,154.465658 L242.970408,146.376252 Z M251.948578,146.368295 C251.948578,145.954587 252.382294,145.615661 252.910743,145.615661 C253.438755,145.615661 253.872471,145.954587 253.872471,146.368295 L253.872471,154.473575 C253.872471,154.899834 253.438755,155.226229 252.910743,155.226229 C252.382294,155.226229 251.948578,154.899834 251.948578,154.473575 L251.948578,146.368295 Z M257.07896,146.431379 C257.07896,145.979633 257.575483,145.615661 258.176403,145.615661 C258.646405,145.615661 259.038951,145.841736 259.195758,146.155141 L262.893263,152.001815 L262.932412,152.001815 L262.919362,146.368262 C262.919362,145.954572 263.337165,145.615661 263.846737,145.615661 C264.35631,145.615661 264.774534,145.954572 264.774534,146.368262 L264.774534,154.41051 C264.774534,154.862257 264.278011,155.226229 263.67688,155.226229 C263.220138,155.226229 262.814753,155.025235 262.658156,154.72436 L258.960652,148.85305 L258.921082,148.85305 L258.934132,154.473628 C258.934132,154.887318 258.515908,155.226229 258.006756,155.226229 C257.497184,155.226229 257.07896,154.887318 257.07896,154.473628 L257.07896,146.431379 Z M272.217314,147.339175 L269.820547,147.339175 L269.820547,150.380569 L272.217314,150.380569 C273.059646,150.380569 273.759225,149.695875 273.759225,148.859658 C273.759225,148.02344 273.059646,147.339175 272.217314,147.339175 Z M267.981023,146.375892 C267.981023,145.957558 268.395302,145.615661 268.900576,145.615661 L272.256133,145.615661 C274.147625,145.615661 275.676597,146.996828 275.676597,148.859658 C275.676597,150.228617 274.860561,151.30588 273.707466,151.800179 L274.847621,154.017585 C275.067596,154.423261 274.860561,154.892245 274.380957,155.13327 C273.927441,155.335464 273.383348,155.196149 273.215132,154.828487 L271.815974,152.104104 L269.820547,152.104104 L269.820547,154.461682 C269.820547,154.879567 269.405851,155.221914 268.900576,155.221914 C268.395302,155.221914 267.981023,154.879567 267.981023,154.461682 L267.981023,146.375892 Z M281.177517,148.251727 L281.077929,148.251727 L279.859028,151.716318 L282.396417,151.716318 L281.177517,148.251727 Z M285.257617,154.138945 C285.393874,154.528645 285.157829,154.980205 284.709783,155.168371 C284.237492,155.319309 283.764399,155.168371 283.590471,154.792058 L282.993344,153.423528 L279.261701,153.423528 L278.664975,154.792058 C278.490245,155.168371 278.017753,155.319309 277.545061,155.168371 C277.097216,154.980205 276.861171,154.528645 276.997829,154.138945 L280.058004,146.218395 C280.418484,145.414749 281.836561,145.414749 282.197442,146.218395 L285.257617,154.138945 Z M154.471311,117.104763 C154.471311,104.916268 164.402849,95 176.610279,95 C182.773545,95 188.705403,97.5947736 192.885858,102.119328 C193.88151,103.197051 193.813766,104.875996 192.734832,105.870548 C191.655691,106.865099 189.973275,106.796532 188.977623,105.719244 C185.800899,102.280809 181.293118,100.308977 176.610279,100.308977 C167.334947,100.308977 159.788707,107.843269 159.788707,117.104763 C159.788707,126.365801 167.334947,133.899659 176.610279,133.899659 C180.931402,133.899659 185.038312,132.267149 188.174637,129.302544 C189.240727,128.295168 190.923764,128.341625 191.93309,129.405613 C192.942622,130.470076 192.896424,132.150346 191.830334,133.158177 C187.702293,137.060265 182.297264,139.208615 176.610279,139.208615 C164.402849,139.208615 154.471311,129.292802 154.471311,117.104763 Z M289.892518,101.774355 C290.276089,101.774355 290.512224,101.452687 290.512224,101.066698 C290.512224,100.712418 290.276089,100.423405 289.892518,100.423405 L288.65291,100.423405 L288.65291,101.774355 L289.892518,101.774355 Z M290.453091,104.444546 L289.626423,102.643265 L288.65291,102.643265 L288.65291,104.444546 L287.85561,104.444546 L287.85561,99.5227639 L289.892518,99.5227639 C290.718792,99.5227639 291.368064,100.230399 291.368064,101.066698 C291.368064,101.742173 291.013862,102.256825 290.482263,102.546784 L291.368064,104.444546 L290.453091,104.444546 Z M289.479184,98.6538324 C287.73774,98.6538324 286.380065,100.166079 286.380065,102.031681 C286.380065,103.929443 287.73774,105.441217 289.479184,105.441217 C291.190864,105.441217 292.548934,103.929443 292.548934,102.031681 C292.548934,100.166079 291.190864,98.6538324 289.479184,98.6538324 L289.479184,98.6538324 Z M289.479184,105.891978 C287.531172,105.891978 285.937361,104.15506 285.937361,102.031681 C285.937361,99.9409131 287.531172,98.2035228 289.479184,98.2035228 C291.397433,98.2035228 292.991637,99.9409131 292.991637,102.031681 C292.991637,104.15506 291.397433,105.891978 289.479184,105.891978 Z M284.82825,132.054793 C285.596477,132.900731 285.413575,134.335728 284.316167,135.328596 C283.291388,136.174535 281.864389,136.284959 281.095958,135.328596 L273.485298,126.94175 C273.009222,126.390104 272.753078,125.801499 272.753078,125.029026 C272.753078,124.256552 273.009222,123.668379 273.485298,123.116301 L281.02292,114.765962 C281.791147,113.809599 283.218145,113.920023 284.24272,114.765962 C285.340538,115.759283 285.523439,117.194258 284.755008,118.040197 L278.570937,125.029026 L284.82825,132.054793 Z M266.057129,110.021108 C266.057129,108.80696 267.228189,107.814091 268.655188,107.814091 C270.082187,107.814091 271.253042,108.80696 271.253042,110.021108 L271.253042,133.784081 C271.253042,134.997345 270.082187,135.990646 268.655188,135.990646 C267.228189,135.990646 266.057129,134.997345 266.057129,133.784081 L266.057129,110.021108 Z M187.017609,137.424882 C187.558597,137.166508 188.17112,137.280305 188.385096,137.679868 C188.60074,138.081124 188.335251,138.615135 187.795097,138.873923 L184.771902,140.350769 C184.230914,140.610404 183.618391,140.496607 183.404206,140.095783 C183.189813,139.696635 183.453842,139.16221 183.995248,138.903008 L187.017609,137.424882 Z" id="Fill-27" fill="#FFFFFF" sketch:type="MSShapeGroup"></path>
            <path d="M193.905343,146.647217 C194.621777,148.000686 194.119698,149.685199 192.7832,150.410888 C191.446702,151.136135 189.782425,150.627723 189.066586,149.274696 L186.221472,143.942888 C185.504641,142.590283 186.007315,140.905327 187.343614,140.179659 C188.680112,139.454392 190.344389,139.963225 191.060427,141.315831 L193.905343,146.647217 Z" id="Path" fill="#FFFFFF" sketch:type="MSShapeGroup"></path>
            <path d="M193.843928,147.091004 C194.068196,147.402038 193.910661,147.789331 193.490724,147.955808 C193.070073,148.121897 192.547656,148.005629 192.323388,147.694595 L191.302405,145.940267 C191.077661,145.629603 191.23472,145.24231 191.655609,145.075833 C192.075307,144.909374 192.597724,145.026012 192.823184,145.337047 L193.843928,147.091004 Z" id="Fill-42" fill="#FFFFFF" sketch:type="MSShapeGroup"></path>
            <path d="M153.703234,114.10561 C154.799847,114.36226 155.640336,115.31441 155.640336,116.523209 C155.640336,117.914207 154.543722,119.013069 153.155141,119.013069 C152.935737,119.013069 152.570328,118.939928 151.693119,118.866787 C148.879237,118.720053 146.759001,121.320301 146.759001,124.359807 L146.759001,133.808138 C146.759001,135.016938 145.589825,136.005883 144.164524,136.005883 C142.738793,136.005883 141.569187,135.016938 141.569187,133.808138 L141.569187,116.266559 C141.569187,115.131331 142.665801,114.215548 143.981819,114.215548 C145.297429,114.215548 146.393613,115.131331 146.393613,116.266559 L146.393613,117.438133 L146.466605,117.438133 C147.563219,115.57061 149.098212,113.885756 151.948815,113.885756 C152.496908,113.885756 153.081721,113.959327 153.703234,114.10561" id="Fill-32" fill="#FFFFFF" sketch:type="MSShapeGroup"></path>
        </g>
    </g>
</svg>